<svg xmlns="http://www.w3.org/2000/svg" version="1.1" height="200px" width="400px"> <g>
  <g fill="#db0012">
    <g>
      <path x="0" y="0" d="M62.31301,57.93527L62.39605,57.93527L62.56047,57.93691L62.64268,57.93856L62.72572,57.93938L62.80793,57.94102L62.89014,57.94185L62.97236,57.94431L63.13678,57.9476L63.3012,57.95253L63.38342,57.95418L63.46481,57.95747L63.54702,57.95993L63.62923,57.96322L63.71144,57.96569L63.79283,57.96898L63.87505,57.97226L63.95644,57.97637L64.03865,57.97966L64.20143,57.98788L64.28364,57.99199L64.36668,57.99611L64.44889,58.00104L64.5311,58.00515L64.69552,58.01501L64.77774,58.02077L64.85995,58.0257L64.94216,58.03146L65.02437,58.03639L65.10659,58.04297L65.27101,58.05448L65.3524,58.06105L65.43461,58.06763L65.516,58.07421L65.59822,58.08078L65.67961,58.08736L65.76182,58.09476L65.84321,58.10134L65.92542,58.10874L66.00681,58.11614L66.0882,58.12436L66.16959,58.13176L66.33237,58.1482L66.4968,58.16464L66.57819,58.17368L66.82482,58.20081L66.90621,58.20986L66.98842,58.21972L67.06981,58.22877L67.1512,58.23863L67.23342,58.2485L67.31481,58.25836L67.3962,58.26905L67.47759,58.27892L67.5598,58.2896L67.64119,58.30029L67.72258,58.3118L67.80397,58.32249L67.88454,58.334L67.96593,58.34469L68.12871,58.3677L68.20928,58.38004L68.29067,58.39155L68.37124,58.40388L68.61541,58.44087L69.02236,58.50664L69.10375,58.52062L69.18431,58.5346L69.34709,58.56255L69.42766,58.57652L69.50905,58.5905L69.75076,58.63489L69.83215,58.64969L69.91272,58.66531L69.99328,58.68011L70.23499,58.72697L70.31473,58.74259L70.71757,58.82481L71.12041,58.91113L71.20098,58.92921L71.28073,58.9473L71.3613,58.96457L71.44186,58.98347L71.60136,59.01965L71.68192,59.03856L71.92116,59.09528L72.00091,59.11501L72.08065,59.13392L72.39964,59.21285L72.47856,59.2334L72.55831,59.25313L72.63805,59.27368L72.7178,59.29506L72.79754,59.31561L72.87729,59.33699L72.95704,59.35754L73.03596,59.37892L73.11571,59.40111L73.19463,59.42249L73.27438,59.44386L73.3533,59.46606L73.43304,59.48826L73.59089,59.53265L73.66982,59.55567L73.74874,59.57787L73.98551,59.64693L74.06444,59.67077L74.14336,59.69379L74.22146,59.71763L74.30038,59.74147L74.45659,59.78916L74.53551,59.813L74.61361,59.83766L74.69254,59.86232L74.77064,59.88699L74.84956,59.91247L74.92766,59.93714L75.00577,59.96262L75.08469,59.98811L75.31899,60.06457L75.4752,60.11718L75.55248,60.14349L75.70868,60.19611L75.78596,60.22241L75.86406,60.24954L76.0959,60.33093L76.17318,60.35889L76.25046,60.38602L76.55958,60.49782L76.79142,60.58415L76.86787,60.61292L76.94515,60.6417L77.02243,60.67129L77.09889,60.70007L77.17535,60.72966L77.25263,60.75926L77.32908,60.78886L77.40554,60.81927L77.482,60.84887L77.78783,60.97055L77.86346,61.00179L77.93992,61.0322L78.01556,61.06345L78.09201,61.09469L78.16765,61.12593L78.24328,61.15799L78.31892,61.18923L78.62146,61.31748L78.77273,61.38325L78.84837,61.41531L78.924,61.44902L78.99882,61.48191L79.07445,61.51479L79.14926,61.5485L79.2249,61.5822L79.29971,61.61509L79.37453,61.64962L79.52415,61.71703L79.67378,61.78609L79.74777,61.82062L79.82258,61.85515L79.89657,61.88968L79.97139,61.92421L80.26735,62.06561L80.34134,62.10179L80.41616,62.13714L80.49015,62.17331L80.56332,62.20948L80.7113,62.28183L80.78529,62.31883L80.85846,62.35582L80.93245,62.392L81.00562,62.42899L81.07879,62.46681L81.22512,62.5408L81.44463,62.65425L81.51698,62.69207L81.59015,62.73071L81.66249,62.76853L81.73566,62.80717L82.02505,62.96173L82.0974,63.00119L82.16892,63.04065L82.38596,63.15904L82.45749,63.19932L82.52983,63.23878L82.81593,63.39992L82.95898,63.48213L83.03051,63.52241L83.10121,63.56352L83.17273,63.60545L83.31414,63.68766L83.38484,63.72959L83.45637,63.77152L83.52625,63.81345L83.66765,63.8973L83.73835,63.94005L83.80823,63.98198L83.87894,64.02473L84.0187,64.11023L84.0894,64.1538L84.15928,64.19656L84.36892,64.32727L84.43798,64.37085L84.50786,64.41442L84.57692,64.45881L84.6468,64.50238L84.85397,64.63557L84.92303,64.68079L84.99209,64.72518L85.06115,64.7704L85.12938,64.81561L85.19844,64.86083L85.40315,64.99648L85.74433,65.22667L85.81175,65.27354L85.87998,65.31957L86.14964,65.50702L86.21705,65.5547L86.28447,65.60156L86.35188,65.64925L86.41847,65.69693L86.48589,65.74461L86.61907,65.83998L86.68566,65.88848L86.75226,65.93617L86.88544,66.03318L86.95121,66.08168L87.0178,66.13019L87.08357,66.17952L87.14934,66.22802L87.41242,66.42533L87.47819,66.47548L87.54314,66.52481L87.60891,66.57496L87.67385,66.62511L87.73962,66.67526L87.86952,66.77555L87.93447,66.82653L87.99859,66.8775L88.06354,66.92765L88.12767,66.97862L88.19261,67.02959L88.25674,67.08056L88.32087,67.13236L88.38499,67.18333L88.51324,67.28691L88.57655,67.33871L88.64067,67.3905L88.70397,67.4423L88.76728,67.49491L88.8314,67.54671L88.95801,67.65194L89.02049,67.70455L89.1471,67.80978L89.20958,67.86322L89.27206,67.91584L89.33454,67.96928L89.39785,68.02271L89.45951,68.07615L89.52199,68.12959L89.58447,68.18385L89.64613,68.23729L89.70861,68.29155L90.0169,68.56285L90.07774,68.61793L90.1394,68.67301L90.20024,68.72727L90.26107,68.78236L90.32273,68.83744L90.38357,68.89334L90.44359,68.94842L90.50442,69.00433L90.56526,69.05941L90.62528,69.11532L90.68611,69.17122L90.74613,69.22712L90.80614,69.28385L90.86616,69.33975L90.92535,69.39566L91.04538,69.50911L91.22296,69.67929L91.28215,69.73684L91.34134,69.79357L91.45973,69.90866L91.63484,70.08131L91.69403,70.13886L91.75158,70.19723L91.80995,70.25478L91.86832,70.31315L91.92587,70.37152L91.98424,70.42989L92.09934,70.54663L92.15689,70.60582L92.21444,70.66419L92.27117,70.72339L92.32871,70.78258L92.44217,70.90097L92.49972,70.96016L92.55562,71.02017L92.61235,71.07937L92.7258,71.1994L92.94942,71.43946L93.00532,71.50029L93.06122,71.56031L93.11631,71.62115L93.17221,71.68198L93.33746,71.86449L93.39254,71.92615L93.44762,71.98699L93.50188,72.04865L93.55614,72.10949L93.61123,72.17115L93.71975,72.29446L93.77318,72.35695L93.82744,72.4186L93.8817,72.48109L93.93514,72.54275L94.20233,72.85515L94.25495,72.91846L94.30756,72.98094L94.361,73.04424L94.46623,73.17085L94.51803,73.23415L94.57064,73.29745L94.62244,73.36076L94.67505,73.42488L94.72685,73.48819L94.77864,73.55231L94.82961,73.61562L94.9332,73.74387L94.98417,73.80799L95.03514,73.87294L95.08611,73.93707L95.13708,74.00201L95.18806,74.06614L95.23903,74.13109L95.38948,74.32593L95.44045,74.39088L95.48978,74.45665L95.53993,74.52159L95.59007,74.58736L95.6394,74.65231L95.88604,74.98116L95.93454,75.04775L95.98305,75.11352L96.08006,75.24671L96.12856,75.31248L96.17707,75.37907L96.22475,75.44566L96.27326,75.51307L96.36862,75.64626L96.41631,75.71367L96.46317,75.78026L96.51085,75.84768L96.55771,75.91509L96.6054,75.98251L96.69912,76.11733L96.74516,76.18557L96.79202,76.25298L96.83806,76.32122L96.88492,76.38946L96.93096,76.45687L97.02303,76.59334L97.06825,76.66158L97.11429,76.72982L97.15951,76.79887L97.24994,76.93535L97.29516,77.00441L97.33955,77.07346L97.38477,77.1417L97.47356,77.27982L97.51795,77.3497L97.60674,77.48781L97.65031,77.55769L97.69389,77.62675L97.73828,77.69663L97.82543,77.83639L97.86818,77.90627L97.91175,77.97615L97.99725,78.11592L98.04,78.18662L98.08275,78.2565L98.1255,78.3272L98.16743,78.39708L98.21018,78.46778L98.29404,78.60919L98.33514,78.67989L98.419,78.8213L98.4601,78.89282L98.50121,78.96352L98.54232,79.03505L98.58342,79.10575L98.62371,79.17728L98.66481,79.2488L98.78567,79.46337L98.82595,79.53572L98.86623,79.60725L98.9057,79.67959L98.94598,79.75112L99.06437,79.96816L99.103,80.0405L99.14247,80.11285L99.25839,80.32989L99.2962,80.40224L99.33484,80.47541L99.37266,80.54775L99.41048,80.62092L99.4483,80.69327L99.52393,80.83961L99.56093,80.91278L99.59874,80.98595L99.63574,81.05994L99.70973,81.20627L99.74673,81.28027L99.7829,81.35343L99.81907,81.42743L99.85607,81.50142L99.89224,81.57541L99.92759,81.6494L99.96377,81.72339L99.99912,81.79738L100.03529,81.87137L100.07064,81.94536L100.10517,82.01935L100.14052,82.09417L100.17505,82.16816L100.2104,82.24297L100.24493,82.31696L100.31399,82.46659L100.3477,82.54058L100.38223,82.61539L100.41593,82.69021L100.44964,82.76584L100.51706,82.91547L100.54994,82.9911L100.58365,83.06592L100.61653,83.14155L100.64942,83.21636L100.71519,83.36764L100.77931,83.51891L100.8122,83.59454L100.84426,83.67018L100.8755,83.74581L100.90756,83.82227L101.00129,84.04917L101.03253,84.12563L101.06377,84.20127L101.1246,84.35418L101.15502,84.42982L101.24628,84.65919L101.27588,84.73565L101.30547,84.81293L101.36466,84.96584L101.39426,85.04312L101.42304,85.11958L101.45263,85.19686L101.53895,85.4287L101.56691,85.50598L101.59568,85.58326L101.62363,85.65971L101.65159,85.73699L101.67872,85.81427L101.70667,85.89155L101.76093,86.04611L101.78806,86.12421L101.84232,86.27877L101.86863,86.35687L101.89576,86.43415L101.97468,86.66846L102.00017,86.74574L102.02647,86.82384L102.05196,86.90276L102.10293,87.05897L102.12759,87.13707L102.15308,87.21599L102.17774,87.29409L102.20241,87.37302L102.22707,87.45112L102.25173,87.53004L102.27558,87.60814L102.30024,87.68625L102.32408,87.76517L102.34792,87.84327L102.37094,87.92219L102.39478,88.00112L102.4178,88.07922L102.50988,88.39492L102.55428,88.55276L102.57647,88.63251L102.62087,88.79036L102.64307,88.8701L102.66444,88.94985L102.68582,89.02877L102.72857,89.18826L102.74912,89.26801L102.77049,89.34776L102.8116,89.50725L102.83215,89.58617L102.85188,89.66592L102.87244,89.74484L102.9119,89.90433L102.93081,89.98408L102.95054,90.06382L102.96945,90.14357L102.98918,90.22332L103.00809,90.30306L103.02617,90.38363L103.06399,90.54312L103.08208,90.62369L103.10017,90.70344L103.13634,90.86457L103.1536,90.94514L103.17169,91.02489L103.22348,91.26659L103.23993,91.34716L103.25719,91.42855L103.29008,91.58968L103.3057,91.66943L103.32214,91.75L103.33776,91.83057L103.3542,91.91113L103.369,91.9917L103.40024,92.15284L103.41504,92.23341L103.43066,92.31397L103.44546,92.39454L103.45943,92.47593L103.48903,92.63707L103.51698,92.79985L103.53096,92.88042L103.54493,92.96181L103.55809,93.0432L103.57124,93.12377L103.58522,93.20516L103.59837,93.28655L103.6107,93.36794L103.62386,93.44933L103.63619,93.53154L103.64934,93.61293L103.66085,93.6935L103.67319,93.77489L103.68552,93.85545L103.69703,93.93684L103.70854,94.01741L103.74307,94.26158L103.7965,94.66853L103.80637,94.74992L103.81623,94.83214L103.83597,94.99492L103.84583,95.07713L103.85487,95.15852L103.86474,95.24073L103.87378,95.32294L103.88283,95.40433L103.89187,95.48655L103.90831,95.65097L103.91736,95.73236L103.92475,95.81375L103.9412,95.97653L103.9486,96.05874L103.96339,96.22152L103.97079,96.30374L103.97737,96.38513L103.98477,96.46652L103.99792,96.63094L104.0045,96.71233L104.01026,96.79454L104.01683,96.87676L104.02259,96.95815L104.0341,97.12257L104.03903,97.20478L104.04478,97.28699L104.05958,97.53363L104.06452,97.61667L104.06863,97.69888L104.07356,97.78109L104.07767,97.8633L104.08178,97.94469L104.08507,98.02691L104.08918,98.1083L104.09247,98.19051L104.09576,98.2719L104.10233,98.43632L104.1048,98.51771L104.10809,98.59992L104.11549,98.84656L104.11713,98.92795L104.1196,99.01016L104.12289,99.17459L104.12453,99.25762L104.12535,99.33984L104.127,99.42205L104.12782,99.50426L104.12864,99.58729L104.13029,99.75172L104.13029,99.83475L104.13111,99.91697L104.13111,100.08221L104.13029,100.16525L104.13029,100.24746L104.12946,100.33049L104.12782,100.49492L104.127,100.57795L104.12535,100.66016L104.12453,100.74238L104.1196,100.98901L104.11713,101.07123L104.11549,101.15344L104.11055,101.31786L104.10809,101.39925L104.1048,101.48147L104.10233,101.56368L104.09904,101.64589L104.09576,101.72728L104.09247,101.80949L104.08918,101.89088L104.08507,101.97309L104.08178,102.05448L104.07767,102.13587L104.07356,102.21809L104.06863,102.30112L104.06452,102.38333L104.04478,102.71218L104.03903,102.7944L104.0341,102.87661L104.01683,103.12324L104.01026,103.20546L104.0045,103.28685L103.99792,103.36906L103.99135,103.45045L103.98477,103.53266L103.97737,103.61405L103.97079,103.69626L103.96339,103.77765L103.956,103.85987L103.9412,104.02265L103.92475,104.18543L103.91736,104.26682L103.90831,104.34903L103.90009,104.43124L103.89187,104.51263L103.86474,104.75927L103.85487,104.84066L103.84583,104.92287L103.8261,105.08565L103.81623,105.16786L103.7965,105.33064L103.78582,105.41286L103.74307,105.73842L103.73156,105.81898L103.69703,106.06316L103.68552,106.14372L103.67319,106.22511L103.66085,106.30568L103.64934,106.38707L103.63619,106.46846L103.62386,106.54985L103.6107,106.63124L103.59837,106.71263L103.58522,106.79402L103.57124,106.87541L103.54493,107.03819L103.53096,107.11876L103.50301,107.28154L103.48903,107.36211L103.47423,107.4435L103.45943,107.52407L103.44546,107.60464L103.43066,107.68603L103.41504,107.76659L103.40024,107.84716L103.369,108.0083L103.3542,108.08887L103.33776,108.16943L103.32214,108.24918L103.3057,108.32975L103.29008,108.41032L103.25719,108.57145L103.23993,108.65202L103.22348,108.73259L103.17169,108.97429L103.1536,109.05486L103.13634,109.13543L103.11825,109.21517L103.08208,109.37631L103.06399,109.45606L103.04508,109.5358L103.02617,109.61637L103.00809,109.69612L102.98918,109.77586L102.96945,109.85561L102.95054,109.93535L102.93081,110.0151L102.9119,110.09485L102.87244,110.25434L102.85188,110.33408L102.83215,110.41301L102.77049,110.65224L102.74912,110.73199L102.72857,110.81174L102.70719,110.89148L102.68582,110.97041L102.64307,111.1299L102.59867,111.28775L102.57647,111.36749L102.50988,111.60426L102.39478,111.99888L102.37094,112.07781L102.34792,112.15591L102.32408,112.23483L102.30024,112.31293L102.27558,112.39103L102.25173,112.46996L102.22707,112.54806L102.20241,112.62698L102.17774,112.70508L102.15308,112.78401L102.12759,112.86211L102.10293,112.94103L102.02647,113.17534L102.00017,113.25344L101.97468,113.33154L101.94837,113.40964L101.92206,113.48692L101.89576,113.56503L101.86863,113.64313L101.84232,113.72041L101.81519,113.79851L101.70667,114.10763L101.67872,114.18491L101.65159,114.26219L101.59568,114.41674L101.56691,114.49402L101.53895,114.5713L101.48141,114.72586L101.45263,114.80232L101.42304,114.8796L101.39426,114.95688L101.36466,115.03334L101.33507,115.11062L101.24628,115.33999L101.09419,115.72228L101.06377,115.79791L101.03253,115.87437L101.00129,115.95L100.97005,116.02646L100.90756,116.17773L100.8755,116.25337L100.84426,116.329L100.8122,116.40464L100.77931,116.48027L100.71519,116.63154L100.61653,116.85845L100.58365,116.93326L100.54994,117.0089L100.51706,117.08371L100.48335,117.15935L100.38223,117.38379L100.3477,117.4586L100.31399,117.53341L100.27946,117.60822L100.24493,117.68222L100.2104,117.75703L100.17505,117.83102L100.14052,117.90583L100.10517,117.97982L100.07064,118.05382L100.03529,118.12781L99.99912,118.2018L99.96377,118.27579L99.92759,118.3506L99.89224,118.42459L99.85607,118.49858L99.81907,118.57175L99.74673,118.71973L99.70973,118.7929L99.67274,118.86689L99.59874,119.01323L99.56093,119.0864L99.52393,119.15957L99.41048,119.37908L99.37266,119.45142L99.33484,119.52459L99.2962,119.59694L99.25839,119.67011L99.14247,119.88715L99.103,119.9595L99.06437,120.03184L99.0249,120.10419L98.98544,120.17571L98.94598,120.24806L98.9057,120.32041L98.86623,120.39193L98.82595,120.46428L98.66481,120.75038L98.62371,120.8219L98.58342,120.89343L98.54232,120.96495L98.50121,121.03565L98.4601,121.10718L98.419,121.17788L98.37707,121.24858L98.33514,121.32011L98.29404,121.39081L98.25211,121.46069L98.21018,121.53139L98.16743,121.6021L98.1255,121.6728L98.08275,121.74268L98.04,121.81338L97.9545,121.95314L97.91175,122.02385L97.86818,122.09373L97.82543,122.16361L97.73828,122.30337L97.69389,122.37243L97.65031,122.44231L97.60674,122.51136L97.56235,122.58125L97.38477,122.85748L97.33955,122.92654L97.29516,122.99559L97.24994,123.06383L97.20472,123.13289L97.11429,123.26936L97.06825,123.3376L97.02303,123.40583L96.88492,123.61054L96.83806,123.67878L96.79202,123.74619L96.74516,123.81443L96.69912,123.88184L96.6054,124.01667L96.55771,124.08409L96.51085,124.1515L96.46317,124.21891L96.41631,124.28633L96.36862,124.35292L96.32094,124.42033L96.27326,124.48693L96.22475,124.55352L96.17707,124.62011L96.03155,124.81989L95.98305,124.88566L95.93454,124.95225L95.88604,125.01802L95.59007,125.41264L95.53993,125.47841L95.48978,125.54335L95.44045,125.6083L95.38948,125.67407L95.23903,125.86891L95.18806,125.93304L95.13708,125.99799L95.08611,126.06211L95.03514,126.12706L94.9332,126.25531L94.82961,126.38356L94.77864,126.44769L94.72685,126.51099L94.67505,126.57512L94.62244,126.63842L94.57064,126.70172L94.51803,126.76585L94.46623,126.82915L94.41362,126.89246L94.361,126.95494L94.30756,127.01824L94.25495,127.08154L94.20233,127.14403L94.14889,127.20651L94.09546,127.26981L94.04202,127.33229L93.98858,127.39395L93.8817,127.51891L93.82744,127.58057L93.77318,127.64305L93.71975,127.70471L93.61123,127.82803L93.55614,127.88969L93.50188,127.95135L93.44762,128.01219L93.39254,128.07385L93.33746,128.13468L93.28238,128.19634L93.17221,128.31802L93.11631,128.37803L93.06122,128.43887L93.00532,128.49971L92.94942,128.55972L92.89351,128.62056L92.7258,128.8006L92.66907,128.86062L92.61235,128.91981L92.55562,128.97983L92.49972,129.03902L92.44217,129.09821L92.32871,129.2166L92.27117,129.27579L92.21444,129.33498L92.15689,129.39418L92.04179,129.51092L91.98424,129.57011L91.69403,129.86032L91.63484,129.91869L91.45973,130.09134L91.40054,130.14888L91.34134,130.20561L91.28215,130.26316L91.16377,130.37661L91.10457,130.43416L91.04538,130.49089L90.98537,130.54679L90.92535,130.60352L90.86616,130.66025L90.68611,130.82796L90.62528,130.88386L90.56526,130.93977L90.50442,130.99567L90.44359,131.05075L90.38357,131.10666L90.32273,131.16174L90.26107,131.21682L90.1394,131.32699L90.07774,131.38207L90.0169,131.43633L89.95525,131.49059L89.89359,131.54567L89.77027,131.65419L89.70861,131.70763L89.64613,131.76189L89.58447,131.81615L89.45951,131.92303L89.39785,131.97646L89.33454,132.0299L89.20958,132.13678L89.1471,132.18939L89.0838,132.24201L89.02049,132.29545L88.95801,132.34806L88.89471,132.40068L88.8314,132.45247L88.76728,132.50509L88.70397,132.55688L88.64067,132.6095L88.57655,132.66129L88.51324,132.71309L88.44912,132.76406L88.32087,132.86764L88.19261,132.96959L88.12767,133.02056L88.06354,133.07153L87.99859,133.1225L87.93447,133.17347L87.80457,133.27377L87.73962,133.32474L87.67385,133.37489L87.60891,133.42422L87.54314,133.47437L87.47819,133.52452L87.08357,133.82048L87.0178,133.86899L86.95121,133.9175L86.88544,133.966L86.68566,134.11152L86.61907,134.1592L86.55248,134.2077L86.48589,134.25539L86.41847,134.30307L86.35188,134.35075L86.28447,134.39762L86.21705,134.4453L86.14964,134.49216L86.08223,134.53984L85.9474,134.63356L85.87998,134.6796L85.81175,134.72646L85.74433,134.7725L85.6761,134.81936L85.47139,134.95748L85.40315,135.0027L85.33492,135.04874L85.19844,135.13917L85.12938,135.18439L85.06115,135.2296L84.99209,135.274L84.92303,135.31921L84.6468,135.49679L84.57692,135.54119L84.50786,135.58476L84.43798,135.62915L84.36892,135.67273L84.22916,135.75987L84.15928,135.80262L84.0894,135.8462L84.0187,135.88895L83.87894,135.97445L83.80823,136.0172L83.73835,136.05995L83.66765,136.10188L83.59695,136.14463L83.52625,136.18655L83.45637,136.22848L83.38484,136.27041L83.31414,136.31152L83.24344,136.35345L83.17273,136.39455L83.10121,136.43566L83.03051,136.47676L82.88746,136.55898L82.52983,136.7604L82.45749,136.80068L82.38596,136.84014L82.31361,136.88043L82.16892,136.95935L82.0974,136.99881L82.02505,137.03745L81.9527,137.07691L81.73566,137.19283L81.66249,137.23065L81.59015,137.26929L81.51698,137.30711L81.44463,137.34493L81.15196,137.4962L80.93245,137.60718L80.85846,137.64418L80.78529,137.68117L80.63731,137.75352L80.56332,137.79052L80.49015,137.82669L80.41616,137.86204L80.34134,137.89821L80.26735,137.93356L80.19336,137.96974L80.11937,138.00509L80.04538,138.03962L79.97139,138.07497L79.89657,138.1095L79.82258,138.14485L79.74777,138.17938L79.67378,138.21391L79.59897,138.24844L79.52415,138.28214L79.44934,138.31667L79.2249,138.4178L79.14926,138.4515L79.07445,138.48439L78.99882,138.51809L78.924,138.55098L78.6971,138.64963L78.54583,138.71376L78.47019,138.74664L78.39456,138.77871L78.31892,138.80995L78.24328,138.84201L78.09201,138.90449L78.01556,138.93573L77.93992,138.96697L77.86346,138.99821L77.78783,139.02863L77.40554,139.18073L77.25263,139.23992L77.17535,139.26951L77.02243,139.32871L76.94515,139.35748L76.86787,139.38708L76.79142,139.41585L76.63686,139.4734L76.55958,139.50135L76.4823,139.53013L76.32774,139.58603L76.25046,139.61316L76.17318,139.64111L75.86406,139.74963L75.78596,139.77676L75.70868,139.80307L75.63058,139.8302L75.55248,139.85651L75.4752,139.88282L75.3971,139.90913L75.31899,139.93461L75.24089,139.96092L75.08469,140.01189L75.00577,140.03738L74.92766,140.06204L74.84956,140.08753L74.77064,140.11219L74.69254,140.13685L74.61361,140.16152L74.53551,140.18618L74.45659,140.21002L74.37849,140.23469L74.30038,140.25853L74.22146,140.28237L74.14336,140.30539L74.06444,140.32923L73.66982,140.44433L73.51197,140.48872L73.43304,140.51174L73.3533,140.53312L73.27438,140.55531L73.19463,140.57751L73.11571,140.59889L73.03596,140.62026L72.95704,140.64164L72.87729,140.66301L72.79754,140.68357L72.7178,140.70494L72.47856,140.7666L72.39964,140.78633L72.31989,140.80688L72.1604,140.84635L72.08065,140.86525L72.00091,140.88499L71.92116,140.90389L71.84142,140.92363L71.76167,140.94253L71.68192,140.96062L71.60136,140.97953L71.52161,140.99844L71.44186,141.01653L71.28073,141.0527L71.20098,141.07079L71.12041,141.08805L71.03985,141.10614L70.79814,141.15793L70.71757,141.17437L70.63701,141.19164L70.3953,141.24096L70.31473,141.25659L70.23499,141.27221L70.15442,141.28865L70.07385,141.30427L69.99328,141.31907L69.91272,141.33469L69.83215,141.34948L69.75076,141.36511L69.67019,141.3799L69.58962,141.39388L69.50905,141.40868L69.42766,141.42348L69.34709,141.43745L69.18431,141.4654L69.10375,141.47938L69.02236,141.49253L68.94097,141.50651L68.77819,141.53282L68.6968,141.54515L68.61541,141.5583L68.53402,141.57064L68.45263,141.58379L68.37124,141.59612L68.29067,141.60763L68.20928,141.61996L68.12871,141.63147L67.88454,141.666L67.80397,141.67751L67.5598,141.70957L67.47759,141.72026L67.3962,141.73095L67.23342,141.75068L67.1512,141.76055L66.98842,141.78028L66.90621,141.78932L66.82482,141.79919L66.57819,141.82632L66.4968,141.83454L66.41458,141.84276L66.33237,141.8518L66.25098,141.86002L66.16959,141.86742L66.0882,141.87564L65.92542,141.89044L65.84321,141.89784L65.76182,141.90524L65.67961,141.91182L65.59822,141.91922L65.516,141.92579L65.43461,141.93237L65.3524,141.93895L65.27101,141.9447L65.1888,141.95128L64.94216,141.96854L64.85995,141.97348L64.77774,141.97923L64.44889,141.99896L64.36668,142.00307L64.28364,142.00801L64.20143,142.01212L64.12004,142.01623L64.03865,142.01951L63.95644,142.02363L63.87505,142.02691L63.79283,142.0302L63.71144,142.03349L63.62923,142.03678L63.54702,142.03925L63.46481,142.04253L63.38342,142.045L63.21899,142.04993L63.13678,142.05158L63.05457,142.05404L62.80793,142.05898L62.72572,142.0598L62.64268,142.06144L62.39605,142.06391L62.31301,142.06473L62.2308,142.06473L62.14777,142.06555L61.98252,142.06555L61.90031,142.06473L61.81727,142.06473L61.65285,142.06309L61.56981,142.06227L61.4876,142.06144L61.40539,142.0598L61.32318,142.05898L61.24014,142.05733L61.07572,142.05404L60.99351,142.05158L60.91129,142.04993L60.8299,142.04747L60.66548,142.04253L60.58327,142.03925L60.50188,142.03678L60.33745,142.0302L60.25606,142.02691L60.17385,142.02363L60.09246,142.01951L60.01025,142.01623L59.92886,142.01212L59.84664,142.00801L59.76443,142.00307L59.68222,141.99896L59.59919,141.99403L59.35255,141.97923L59.27034,141.97348L59.18812,141.96854L59.0237,141.95703L58.94231,141.95128L58.8601,141.9447L58.77788,141.93895L58.69649,141.93237L58.53207,141.91922L58.45068,141.91182L58.36929,141.90524L58.28708,141.89784L58.1243,141.88304L58.04209,141.87564L57.96069,141.86742L57.8793,141.86002L57.79791,141.8518L57.71652,141.84276L57.5521,141.82632L57.46989,141.81727L57.3885,141.80823L57.30629,141.79919L57.22407,141.78932L57.14268,141.78028L57.06047,141.77041L56.89769,141.75068L56.81548,141.74082L56.73409,141.73095L56.32714,141.67751L56.08297,141.64298L56.0024,141.63147L55.92101,141.61996L55.84044,141.60763L55.75905,141.59612L55.67848,141.58379L55.59709,141.57064L55.51488,141.5583L55.43349,141.54515L55.3521,141.53282L55.18932,141.50651L55.10875,141.49253L55.02736,141.47938L54.86458,141.45143L54.78401,141.43745L54.70262,141.42348L54.54149,141.39388L54.4601,141.3799L54.37953,141.36511L54.29896,141.34948L54.21839,141.33469L54.13782,141.31907L54.05726,141.30427L53.97669,141.28865L53.89612,141.27221L53.73498,141.24096L53.65524,141.22452L53.4941,141.19164L53.41271,141.17437L53.33214,141.15793L53.09044,141.10614L53.01069,141.08805L52.93013,141.07079L52.76899,141.03461L52.68924,141.01653L52.60868,140.99844L52.44918,140.96062L52.36862,140.94253L52.28887,140.92363L52.20912,140.90389L52.12938,140.88499L52.04963,140.86525L51.96989,140.84635L51.81039,140.80688L51.73147,140.78633L51.65173,140.7666L51.5728,140.74605L51.41331,140.70494L51.33356,140.68357L51.25382,140.66301L51.09433,140.62026L51.0154,140.59889L50.93566,140.57751L50.85591,140.55531L50.77699,140.53312L50.69806,140.51174L50.61832,140.48872L50.46047,140.44433L50.14477,140.35225L50.06667,140.32923L49.98775,140.30539L49.90882,140.28237L49.83072,140.25853L49.7518,140.23469L49.6737,140.21002L49.5956,140.18618L49.51667,140.16152L49.43857,140.13685L49.35965,140.11219L49.28155,140.08753L49.20262,140.06204L49.12452,140.03738L48.96832,139.98641L48.88939,139.96092L48.81129,139.93461L48.73401,139.90913L48.49971,139.8302L48.42243,139.80307L48.34433,139.77676L48.26705,139.74963L48.18894,139.7225L47.95711,139.64111L47.87983,139.61316L47.80255,139.58603L47.72527,139.55808L47.64881,139.53013L47.57153,139.50135L47.49425,139.4734L47.26241,139.38708L47.18513,139.35748L47.10867,139.32871L47.0314,139.29911L46.87848,139.23992L46.8012,139.21032L46.72474,139.18073L46.49537,139.08947L46.41974,139.05905L46.26682,138.99821L46.19119,138.96697L46.11473,138.93573L45.96346,138.87325L45.887,138.84201L45.81137,138.80995L45.73573,138.77871L45.66009,138.74664L45.58446,138.71376L45.43319,138.64963L45.28192,138.58386L45.20711,138.55098L45.13147,138.51809L45.05666,138.48439L44.98102,138.4515L44.83139,138.38409L44.75576,138.35038L44.68095,138.31667L44.60613,138.28214L44.53214,138.24844L44.38252,138.17938L44.30852,138.14485L44.23371,138.1095L44.15972,138.07497L44.08491,138.03962L44.01092,138.00509L43.93693,137.96974L43.86293,137.93356L43.78894,137.89821L43.71495,137.86204L43.64096,137.82669L43.56697,137.79052L43.49298,137.75352L43.41899,137.71735L43.34582,137.68117L43.27183,137.64418L43.12549,137.57019L43.0515,137.53319L42.97833,137.4962L42.75882,137.38274L42.68648,137.34493L42.61331,137.30711L42.54096,137.26929L42.46779,137.23065L42.39545,137.19283L42.1784,137.07691L42.10606,137.03745L42.03371,136.99881L41.81667,136.88043L41.74515,136.84014L41.6728,136.80068L41.60127,136.7604L41.52893,136.72011L41.24283,136.55898L41.1713,136.51787L41.1006,136.47676L41.02908,136.43566L40.95837,136.39455L40.88685,136.35345L40.81615,136.31152L40.74544,136.27041L40.53334,136.14463L40.46263,136.10188L40.39275,136.05995L40.32205,136.0172L40.25217,135.97445L40.18147,135.9317L40.04171,135.8462L39.97183,135.80262L39.90195,135.75987L39.69231,135.62915L39.62325,135.58476L39.55337,135.54119L39.48431,135.49679L39.41443,135.4524L39.20725,135.31921L39.13902,135.274L39.06996,135.2296L39.0009,135.18439L38.93266,135.13917L38.86361,135.09395L38.79537,135.04874L38.72713,135.0027L38.6589,134.95748L38.52243,134.8654L38.45501,134.81936L38.38677,134.7725L38.31854,134.72646L38.25112,134.6796L38.18289,134.63356L38.04806,134.53984L37.98065,134.49216L37.91323,134.4453L37.84582,134.39762L37.77923,134.35075L37.71181,134.30307L37.57863,134.2077L37.51121,134.1592L37.44462,134.11152L37.37803,134.06301L37.31226,134.01451L37.17908,133.9175L37.11331,133.86899L37.04671,133.82048L36.71787,133.57385L36.65292,133.52452L36.52138,133.42422L36.45643,133.37489L36.39148,133.32474L36.32654,133.27377L36.19664,133.17347L36.13169,133.1225L36.06757,133.07153L36.00262,133.02056L35.93849,132.96959L35.87355,132.91862L35.80942,132.86764L35.68117,132.76406L35.61787,132.71309L35.55374,132.66129L35.49044,132.6095L35.42631,132.55688L35.36301,132.50509L35.2997,132.45247L35.2364,132.40068L35.10979,132.29545L35.04649,132.24201L34.98401,132.18939L34.92071,132.13678L34.6083,131.86959L34.54664,131.81615L34.48416,131.76189L34.4225,131.70763L34.36002,131.65419L34.2367,131.54567L34.17504,131.49059L34.1142,131.43633L34.05254,131.38207L33.99171,131.32699L33.93005,131.2719L33.74754,131.10666L33.6867,131.05075L33.62586,130.99567L33.56585,130.93977L33.50501,130.88386L33.26495,130.66025L33.14492,130.54679L33.08573,130.49089L33.02571,130.43416L32.96652,130.37661L32.84813,130.26316L32.78894,130.20561L32.72975,130.14888L32.67138,130.09134L32.61218,130.03379L32.49544,129.91869L32.43707,129.86032L32.3787,129.80277L32.32033,129.7444L32.26278,129.68603L32.20441,129.62848L32.14686,129.57011L32.08931,129.51092L31.97422,129.39418L31.85912,129.27579L31.80239,129.2166L31.74485,129.1574L31.57467,128.97983L31.51794,128.91981L31.46121,128.86062L31.3494,128.74059L31.29268,128.68057L31.23677,128.62056L31.18087,128.55972L31.12496,128.49971L31.06988,128.43887L31.01398,128.37803L30.9589,128.31802L30.90299,128.25718L30.84791,128.19634L30.79283,128.13468L30.73857,128.07385L30.68348,128.01219L30.6284,127.95135L30.3571,127.64305L30.30284,127.58057L30.2494,127.51891L30.19514,127.45643L30.14171,127.39395L30.08827,127.33229L30.03483,127.26981L29.98139,127.20651L29.92878,127.14403L29.87534,127.08154L29.77011,126.95494L29.71749,126.89246L29.61226,126.76585L29.56047,126.70172L29.50785,126.63842L29.45606,126.57512L29.40426,126.51099L29.35247,126.44769L29.24888,126.31944L29.19791,126.25531L29.14612,126.19119L29.09514,126.12706L29.04417,126.06211L28.9932,125.99799L28.94223,125.93304L28.89208,125.86891L28.84111,125.80397L28.74081,125.67407L28.69066,125.6083L28.59036,125.47841L28.54103,125.41264L28.49088,125.34687L28.29357,125.08379L28.24507,125.01802L28.19574,124.95225L28.14724,124.88566L28.09873,124.81989L28.00172,124.6867L27.95404,124.62011L27.90553,124.55352L27.81017,124.42033L27.76248,124.35292L27.7148,124.28633L27.66712,124.21891L27.62026,124.1515L27.57257,124.08409L27.38513,123.81443L27.33827,123.74619L27.29223,123.67878L27.06203,123.3376L26.92638,123.13289L26.88117,123.06383L26.83595,122.99559L26.79073,122.92654L26.74634,122.85748L26.70112,122.78842L26.56794,122.58125L26.52437,122.51136L26.47997,122.44231L26.4364,122.37243L26.39283,122.30337L26.26211,122.09373L26.21936,122.02385L26.17579,121.95314L26.09029,121.81338L26.04753,121.74268L26.00561,121.6728L25.96286,121.6021L25.879,121.46069L25.83707,121.39081L25.79514,121.32011L25.75321,121.24858L25.671,121.10718L25.62907,121.03565L25.58797,120.96495L25.54768,120.89343L25.46547,120.75038L25.30434,120.46428L25.26487,120.39193L25.22459,120.32041L25.14567,120.17571L25.1062,120.10419L25.02728,119.9595L24.87272,119.67011L24.83408,119.59694L24.79626,119.52459L24.75762,119.45142L24.71981,119.37908L24.60635,119.15957L24.53236,119.01323L24.49454,118.94006L24.45755,118.86689L24.42138,118.7929L24.38438,118.71973L24.34739,118.64574L24.31121,118.57175L24.27504,118.49858L24.20269,118.3506L24.16652,118.27579L23.98976,117.90583L23.95523,117.83102L23.9207,117.75703L23.88617,117.68222L23.85164,117.60822L23.78259,117.4586L23.71517,117.30897L23.68064,117.23416L23.64694,117.15935L23.61405,117.08371L23.58034,117.0089L23.54746,116.93326L23.51457,116.85845L23.48087,116.78281L23.4488,116.70718L23.38304,116.55591L23.25478,116.25337L23.22354,116.17773L23.19148,116.1021L23.16024,116.02646L23.129,115.95L23.09776,115.87437L23.06734,115.79791L23.0361,115.72228L22.91443,115.41645L22.88483,115.33999L22.85441,115.26353L22.79522,115.11062L22.76562,115.03334L22.73685,114.95688L22.70725,114.8796L22.67848,114.80232L22.6497,114.72586L22.56338,114.49402L22.45157,114.18491L22.42444,114.10763L22.39649,114.03035L22.3151,113.79851L22.28797,113.72041L22.26166,113.64313L22.20904,113.48692L22.18274,113.40964L22.13012,113.25344L22.02818,112.94103L22.00269,112.86211L21.97803,112.78401L21.95254,112.70508L21.92788,112.62698L21.90321,112.54806L21.87855,112.46996L21.85471,112.39103L21.80703,112.23483L21.78318,112.15591L21.75934,112.07781L21.73632,111.99888L21.71248,111.91996L21.64342,111.68319L21.62123,111.60426L21.59821,111.52534L21.55381,111.36749L21.53161,111.28775L21.50942,111.20882L21.48804,111.1299L21.46667,111.05015L21.44447,110.97041L21.42309,110.89148L21.40254,110.81174L21.38117,110.73199L21.36061,110.65224L21.33924,110.5725L21.31868,110.49275L21.29895,110.41301L21.2784,110.33408L21.17975,109.93535L21.10411,109.61637L21.0852,109.5358L21.04903,109.37631L21.03012,109.29574L21.01286,109.21517L20.99477,109.13543L20.97668,109.05486L20.89036,108.65202L20.80815,108.24918L20.79253,108.16943L20.74567,107.92773L20.73087,107.84716L20.71525,107.76659L20.70045,107.68603L20.68565,107.60464L20.65605,107.4435L20.64208,107.36211L20.6281,107.28154L20.6133,107.20015L20.60015,107.11876L20.58617,107.03819L20.5722,106.9568L20.50643,106.54985L20.46943,106.30568L20.4571,106.22511L20.44559,106.14372L20.43326,106.06316L20.41024,105.90037L20.39955,105.81898L20.38804,105.73842L20.37735,105.65703L20.36584,105.57564L20.34447,105.41286L20.3346,105.33064L20.32392,105.24925L20.31405,105.16786L20.30419,105.08565L20.28445,104.92287L20.27541,104.84066L20.26637,104.75927L20.23924,104.51263L20.23019,104.43124L20.21375,104.26682L20.19731,104.10404L20.18991,104.02265L20.18169,103.94126L20.17429,103.85987L20.16689,103.77765L20.16031,103.69626L20.15291,103.61405L20.14634,103.53266L20.13976,103.45045L20.13318,103.36906L20.12661,103.28685L20.12003,103.20546L20.10852,103.04103L20.10194,102.95882L20.09701,102.87661L20.09126,102.7944L20.08632,102.71218L20.08057,102.62997L20.0707,102.46555L20.06659,102.38333L20.06166,102.30112L20.05755,102.21809L20.05344,102.13587L20.04522,101.97309L20.04193,101.89088L20.03782,101.80949L20.03453,101.72728L20.03124,101.64589L20.02877,101.56368L20.02549,101.48147L20.02302,101.39925L20.01973,101.31786L20.01726,101.23565L20.01562,101.15344L20.01315,101.07123L20.01151,100.98901L20.00904,100.9068L20.0074,100.82459L20.00658,100.74238L20.00493,100.66016L20.00411,100.57795L20.00247,100.49492L20.00082,100.33049L20.00082,100.24746L20,100.16525L20,99.83475L20.00082,99.75172L20.00082,99.66951L20.00164,99.58729L20.00247,99.50426L20.00411,99.42205L20.00493,99.33984L20.00658,99.25762L20.0074,99.17459L20.00904,99.09238L20.01151,99.01016L20.01315,98.92795L20.01562,98.84656L20.01726,98.76435L20.01973,98.68214L20.02302,98.59992L20.02549,98.51771L20.02877,98.43632L20.03124,98.35411L20.03453,98.2719L20.03782,98.19051L20.04193,98.1083L20.04522,98.02691L20.04933,97.94469L20.05344,97.8633L20.06166,97.69888L20.06659,97.61667L20.0707,97.53363L20.08057,97.36921L20.08632,97.28699L20.09126,97.20478L20.09701,97.12257L20.10194,97.04036L20.10852,96.95815L20.11428,96.87676L20.12003,96.79454L20.12661,96.71233L20.13318,96.63094L20.14634,96.46652L20.15291,96.38513L20.16031,96.30374L20.16689,96.22152L20.18169,96.05874L20.18991,95.97653L20.19731,95.89514L20.22197,95.65097L20.23019,95.56876L20.24828,95.40433L20.25732,95.32294L20.27541,95.15852L20.28445,95.07713L20.29432,94.99492L20.31405,94.83214L20.32392,94.74992L20.3346,94.66853L20.34447,94.58714L20.36584,94.42436L20.37735,94.34297L20.38804,94.26158L20.39955,94.18019L20.41024,94.0988L20.42175,94.01741L20.43326,93.93684L20.44559,93.85545L20.4571,93.77489L20.46943,93.6935L20.48176,93.61293L20.4941,93.53154L20.50643,93.44933L20.55904,93.12377L20.5722,93.0432L20.60015,92.88042L20.6133,92.79985L20.6281,92.71846L20.64208,92.63707L20.65605,92.5565L20.67085,92.47593L20.68565,92.39454L20.71525,92.23341L20.73087,92.15284L20.74567,92.07227L20.80815,91.75L20.82459,91.66943L20.84103,91.58968L20.87392,91.42855L20.89036,91.34716L20.95942,91.02489L20.97668,90.94514L21.01286,90.784L21.03012,90.70344L21.04903,90.62369L21.06712,90.54312L21.0852,90.46338L21.10411,90.38363L21.12302,90.30306L21.17975,90.06382L21.25867,89.74484L21.2784,89.66592L21.29895,89.58617L21.31868,89.50725L21.33924,89.4275L21.36061,89.34776L21.38117,89.26801L21.40254,89.18826L21.42309,89.10852L21.44447,89.02877L21.46667,88.94985L21.50942,88.79036L21.55381,88.63251L21.57601,88.55276L21.59821,88.47384L21.62123,88.39492L21.64342,88.31599L21.71248,88.07922L21.73632,88.00112L21.75934,87.92219L21.78318,87.84327L21.80703,87.76517L21.83087,87.68625L21.87855,87.53004L21.90321,87.45112L21.92788,87.37302L21.95254,87.29409L21.97803,87.21599L22.00269,87.13707L22.07915,86.90276L22.10463,86.82384L22.13012,86.74574L22.15643,86.66846L22.23535,86.43415L22.26166,86.35687L22.28797,86.27877L22.34223,86.12421L22.36936,86.04611L22.39649,85.96883L22.42444,85.89155L22.45157,85.81427L22.50747,85.65971L22.53543,85.58326L22.56338,85.50598L22.70725,85.11958L22.73685,85.04312L22.76562,84.96584L22.82481,84.81293L22.85441,84.73565L22.88483,84.65919L22.91443,84.58273L22.97526,84.42982L23.00568,84.35418L23.0361,84.27772L23.06734,84.20127L23.09776,84.12563L23.129,84.04917L23.19148,83.8979L23.22354,83.82227L23.25478,83.74581L23.38304,83.44327L23.4488,83.292L23.48087,83.21636L23.51457,83.14155L23.54746,83.06592L23.58034,82.9911L23.61405,82.91547L23.64694,82.84065L23.68064,82.76584L23.71517,82.69021L23.78259,82.54058L23.81712,82.46659L23.88617,82.31696L23.9207,82.24297L23.95523,82.16816L23.98976,82.09417L24.02511,82.01935L24.16652,81.72339L24.34739,81.35343L24.38438,81.28027L24.42138,81.20627L24.45755,81.13311L24.49454,81.05994L24.53236,80.98595L24.60635,80.83961L24.68199,80.69327L24.71981,80.62092L24.75762,80.54775L24.79626,80.47541L24.83408,80.40224L25.02728,80.0405L25.18513,79.75112L25.22459,79.67959L25.26487,79.60725L25.30434,79.53572L25.34462,79.46337L25.46547,79.2488L25.54768,79.10575L25.58797,79.03505L25.62907,78.96352L25.671,78.89282L25.71211,78.8213L25.75321,78.75059L25.96286,78.39708L26.00561,78.3272L26.04753,78.2565L26.09029,78.18662L26.13304,78.11592L26.17579,78.04603L26.21936,77.97615L26.26211,77.90627L26.4364,77.62675L26.47997,77.55769L26.52437,77.48781L26.56794,77.41875L26.61233,77.3497L26.65673,77.27982L26.70112,77.21076L26.74634,77.1417L26.79073,77.07346L26.88117,76.93535L26.9716,76.79887L27.01682,76.72982L27.06203,76.66158L27.20015,76.45687L27.24619,76.38946L27.33827,76.25298L27.38513,76.18557L27.43199,76.11733L27.57257,75.91509L27.62026,75.84768L27.66712,75.78026L27.7148,75.71367L27.76248,75.64626L27.85785,75.51307L27.90553,75.44566L27.95404,75.37907L28.00172,75.31248L28.05023,75.24671L28.14724,75.11352L28.19574,75.04775L28.24507,74.98116L28.29357,74.91539L28.49088,74.65231L28.54103,74.58736L28.59036,74.52159L28.64051,74.45665L28.69066,74.39088L28.84111,74.19603L28.89208,74.13109L28.94223,74.06614L28.9932,74.00201L29.04417,73.93707L29.09514,73.87294L29.14612,73.80799L29.19791,73.74387L29.24888,73.67974L29.30067,73.61562L29.35247,73.55231L29.40426,73.48819L29.45606,73.42488L29.50785,73.36076L29.56047,73.29745L29.61226,73.23415L29.82272,72.98094L29.87534,72.91846L29.92878,72.85515L29.98139,72.79267L30.19514,72.54275L30.2494,72.48109L30.30284,72.4186L30.3571,72.35695L30.41136,72.29446L30.57414,72.10949L30.6284,72.04865L30.68348,71.98699L30.73857,71.92615L30.79283,71.86449L30.90299,71.74282L30.9589,71.68198L31.01398,71.62115L31.06988,71.56031L31.12496,71.50029L31.18087,71.43946L31.29268,71.31943L31.3494,71.25941L31.46121,71.13938L31.51794,71.07937L31.57467,71.02017L31.63139,70.96016L31.74485,70.84177L31.80239,70.78258L31.85912,70.72339L31.91667,70.66419L31.97422,70.60582L32.03177,70.54663L32.20441,70.37152L32.26278,70.31315L32.32033,70.25478L32.3787,70.19723L32.43707,70.13886L32.61218,69.96621L32.67138,69.90866L32.72975,69.85112L32.78894,69.79357L32.84813,69.73684L32.90733,69.67929L33.02571,69.56584L33.08573,69.50911L33.14492,69.45239L33.20494,69.39566L33.32497,69.28385L33.38498,69.22712L33.50501,69.11532L33.56585,69.05941L33.62586,69.00433L33.6867,68.94842L33.74754,68.89334L33.80837,68.83744L33.93005,68.72727L33.99171,68.67301L34.05254,68.61793L34.1142,68.56285L34.17504,68.50859L34.36002,68.34581L34.4225,68.29155L34.48416,68.23729L34.54664,68.18385L34.6083,68.12959L34.85822,67.91584L34.92071,67.86322L34.98401,67.80978L35.04649,67.75717L35.2997,67.54671L35.36301,67.49491L35.42631,67.4423L35.49044,67.3905L35.55374,67.33871L35.61787,67.28691L35.68117,67.23512L35.74529,67.18333L35.80942,67.13236L35.87355,67.08056L35.93849,67.02959L36.00262,66.97862L36.06757,66.92765L36.13169,66.8775L36.26159,66.77555L36.52138,66.57496L36.58715,66.52481L36.65292,66.47548L36.71787,66.42533L36.98095,66.22802L37.04671,66.17952L37.11331,66.13019L37.17908,66.08168L37.31226,65.98467L37.37803,65.93617L37.44462,65.88848L37.51121,65.83998L37.57863,65.7923L37.71181,65.69693L37.77923,65.64925L37.84582,65.60156L37.91323,65.5547L37.98065,65.50702L38.18289,65.36644L38.25112,65.31957L38.31854,65.27354L38.38677,65.22667L38.45501,65.18064L38.52243,65.1346L38.72713,64.99648L38.86361,64.90605L38.93266,64.86083L39.0009,64.81561L39.13902,64.72518L39.20725,64.68079L39.27631,64.63557L39.41443,64.54678L39.48431,64.50238L39.55337,64.45881L39.62325,64.41442L39.69231,64.37085L39.97183,64.19656L40.04171,64.1538L40.11159,64.11023L40.18147,64.06748L40.25217,64.02473L40.32205,63.98198L40.39275,63.94005L40.46263,63.8973L40.81615,63.68766L40.88685,63.64655L40.95837,63.60545L41.02908,63.56352L41.1006,63.52241L41.1713,63.48213L41.31435,63.39992L41.52893,63.27907L41.60127,63.23878L41.6728,63.19932L41.74515,63.15904L41.81667,63.11957L42.10606,62.96173L42.46779,62.76853L42.54096,62.73071L42.61331,62.69207L42.68648,62.65425L42.75882,62.61644L42.90516,62.5408L43.0515,62.46681L43.12549,62.42899L43.19866,62.392L43.27183,62.35582L43.34582,62.31883L43.41899,62.28183L43.71495,62.13714L43.78894,62.10179L43.86293,62.06561L44.08491,61.95956L44.15972,61.92421L44.23371,61.88968L44.30852,61.85515L44.38252,61.82062L44.53214,61.75156L44.60613,61.71703L44.75576,61.64962L44.83139,61.61509L44.90621,61.5822L44.98102,61.5485L45.05666,61.51479L45.13147,61.48191L45.20711,61.44902L45.28192,61.41531L45.35755,61.38325L45.50882,61.31748L45.81137,61.18923L45.887,61.15799L45.96346,61.12593L46.11473,61.06345L46.19119,61.0322L46.26682,61.00179L46.34328,60.97055L46.41974,60.94013L46.49537,60.90971L46.64829,60.84887L46.72474,60.81927L46.8012,60.78886L46.87848,60.75926L47.0314,60.70007L47.10867,60.67129L47.18513,60.6417L47.57153,60.49782L47.64881,60.46987L47.72527,60.44192L47.87983,60.38602L47.95711,60.35889L48.03439,60.33093L48.18894,60.27667L48.26705,60.24954L48.34433,60.22241L48.42243,60.19611L48.49971,60.1698L48.73401,60.09087L48.81129,60.06457L48.88939,60.03908L48.96832,60.01359L49.20262,59.93714L49.28155,59.91247L49.35965,59.88699L49.43857,59.86232L49.51667,59.83766L49.5956,59.813L49.7518,59.76531L49.83072,59.74147L49.90882,59.71763L49.98775,59.69379L50.06667,59.67077L50.14477,59.64693L50.38155,59.57787L50.46047,59.55567L50.53939,59.53265L50.61832,59.51046L50.69806,59.48826L50.85591,59.44386L51.0154,59.40111L51.09433,59.37892L51.17407,59.35754L51.25382,59.33699L51.33356,59.31561L51.41331,59.29506L51.49306,59.27368L51.5728,59.25313L51.65173,59.2334L51.73147,59.21285L51.81039,59.19312L52.04963,59.13392L52.12938,59.11501L52.20912,59.09528L52.36862,59.05747L52.44918,59.03856L52.52893,59.01965L52.60868,59.00156L52.68924,58.98347L52.76899,58.96457L52.84956,58.9473L53.01069,58.91113L53.09044,58.89386L53.41271,58.82481L53.4941,58.80836L53.65524,58.77548L53.73498,58.75904L53.81555,58.74259L54.13782,58.68011L54.21839,58.66531L54.29896,58.64969L54.4601,58.6201L54.54149,58.6053L54.62205,58.5905L54.70262,58.57652L54.78401,58.56255L54.86458,58.54857L55.10875,58.50664L55.18932,58.49349L55.51488,58.44087L55.59709,58.42854L55.67848,58.41621L55.75905,58.40388L55.84044,58.39155L55.92101,58.38004L56.0024,58.3677L56.08297,58.3562L56.16436,58.34469L56.24575,58.334L56.32714,58.32249L56.40853,58.3118L56.48992,58.30029L56.6527,58.27892L56.73409,58.26905L56.81548,58.25836L56.89769,58.2485L57.06047,58.22877L57.14268,58.21972L57.22407,58.20986L57.3885,58.19177L57.46989,58.18273L57.63431,58.16464L57.71652,58.15642L57.96069,58.13176L58.04209,58.12436L58.1243,58.11614L58.28708,58.10134L58.36929,58.09476L58.45068,58.08736L58.53207,58.08078L58.69649,58.06763L58.77788,58.06105L58.8601,58.05448L58.94231,58.04872L59.0237,58.04297L59.10591,58.03639L59.18812,58.03146L59.27034,58.0257L59.35255,58.02077L59.43476,58.01501L59.59919,58.00515L59.68222,58.00104L59.76443,57.99611L59.92886,57.98788L60.01025,57.98377L60.09246,57.97966L60.17385,57.97637L60.25606,57.97226L60.33745,57.96898L60.41966,57.96569L60.50188,57.96322L60.58327,57.95993L60.66548,57.95747L60.74769,57.95418L60.8299,57.95253L60.91129,57.95007L60.99351,57.9476L61.15793,57.94431L61.24014,57.94185L61.32318,57.94102L61.40539,57.93938L61.4876,57.93856L61.56981,57.93691L61.65285,57.93609L61.73506,57.93527L61.81727,57.93527L61.90031,57.93445L62.2308,57.93445z M61.98252,61.58714L61.90031,61.58796L61.81727,61.58796L61.73506,61.58878L61.65203,61.5896L61.4876,61.59125L61.32318,61.59454L61.24014,61.59618L61.07572,61.59947L60.99351,61.60194L60.91212,61.6044L60.74769,61.60933L60.66548,61.61262L60.58409,61.61509L60.41966,61.62167L60.33827,61.62578L60.25606,61.62907L60.09328,61.63729L60.01025,61.6414L59.92803,61.64551L59.76361,61.65537L59.68058,61.66031L59.51615,61.67017L59.35173,61.68168L59.27034,61.68744L59.18812,61.69319L59.0237,61.70635L58.94231,61.7121L58.8601,61.7195L58.77871,61.72608L58.69649,61.73265L58.6151,61.74005L58.53289,61.74745L58.4515,61.75485L58.37011,61.76307L58.28872,61.77047L58.12594,61.78691L58.04373,61.79513L57.96152,61.80418L57.8793,61.8124L57.79709,61.82144L57.7157,61.83049L57.63349,61.84035L57.5521,61.84939L57.46989,61.85926L57.3885,61.86913L57.30629,61.87899L57.2249,61.88968L57.1435,61.89954L56.89933,61.93161L56.81794,61.94312L56.73655,61.9538L56.57377,61.97682L56.49321,61.98833L56.41182,62.00067L56.33043,62.01217L56.24986,62.02451L56.16847,62.03684L56.08708,62.04999L56.00569,62.06232L55.76152,62.10179L55.68013,62.11576L55.59874,62.12892L55.51735,62.14289L55.43678,62.15687L55.35539,62.17167L55.27482,62.18564L55.19343,62.20044L54.95173,62.24484L54.87034,62.25963L54.62863,62.30649L54.54889,62.32212L54.14605,62.40433L53.82377,62.47339L53.74321,62.49147L53.66264,62.50874L53.58289,62.52682L53.50232,62.54491L53.42258,62.56382L53.34201,62.58191L53.18252,62.61972L53.10195,62.63863L53.0222,62.65754L52.78297,62.71673L52.70404,62.73647L52.6243,62.7562L52.54455,62.77675L52.46563,62.79648L52.38506,62.81703L52.30531,62.83841L52.22639,62.85896L51.98715,62.92309L51.90823,62.94446L51.82848,62.96666L51.74956,62.98803L51.66981,63.01023L51.59089,63.03243L51.51196,63.05545L51.43304,63.07765L51.11735,63.16972L51.03842,63.19357L50.96032,63.21741L50.8814,63.24043L50.80329,63.26509L50.72437,63.28893L50.64627,63.31277L50.56735,63.33744L50.48924,63.3621L50.41032,63.38759L50.33222,63.41225L50.25412,63.43774L50.17519,63.46322L49.94089,63.53968L49.78468,63.59229L49.7074,63.6186L49.6293,63.64491L49.5512,63.67204L49.47392,63.69835L49.39664,63.72548L49.31854,63.75261L49.24126,63.77974L49.16398,63.80769L49.0867,63.83482L48.93214,63.89073L48.85569,63.91868L48.46929,64.06255L48.39283,64.09215L48.31555,64.12174L48.23909,64.15052L48.16181,64.18093L48.0089,64.24013L47.77953,64.33138L47.70389,64.3618L47.55098,64.42428L47.47534,64.4547L47.39971,64.48676L47.32325,64.51801L47.24761,64.54925L46.94507,64.6775L46.7938,64.74327L46.71817,64.77533L46.64253,64.80904L46.56772,64.84192L46.49208,64.87481L46.26764,64.97593L46.19201,65.00963L46.11719,65.04416L46.0432,65.07787L45.89358,65.14693L45.81959,65.18228L45.74477,65.21681L45.67078,65.25134L45.59679,65.28669L45.52198,65.32204L45.44799,65.35739L45.374,65.39357L45.3,65.42892L45.15202,65.50126L45.07803,65.53826L45.00486,65.57443L44.93087,65.61143L44.8577,65.6476L44.78371,65.6846L44.71054,65.72241L44.56421,65.79641L44.3447,65.90986L44.27235,65.94768L44.19918,65.98632L44.12684,66.02413L43.98214,66.10141L43.90897,66.14005L43.83745,66.17952L43.7651,66.21815L43.62041,66.29708L43.54806,66.33736L43.47654,66.37682L43.40419,66.41711L43.33267,66.45657L43.26114,66.49685L43.18879,66.53714L43.11727,66.57824L43.04574,66.61853L42.97504,66.65963L42.83199,66.74185L42.69059,66.82406L42.61906,66.86599L42.40696,66.99177L42.33707,67.0337L42.26637,67.07645L42.19649,67.11838L42.12579,67.16113L42.05591,67.20388L41.98521,67.24745L41.91533,67.2902L41.6358,67.46449L41.56675,67.50807L41.49687,67.55246L41.42781,67.59603L41.28969,67.68482L41.22063,67.73004L41.15157,67.77443L41.08252,67.81965L41.01346,67.86404L40.87698,67.95448L40.80793,68.00052L40.73969,68.04573L40.53498,68.18385L40.46757,68.22989L40.39933,68.27593L40.3311,68.32279L39.99402,68.55709L39.8592,68.65246L39.72601,68.74783L39.6586,68.79551L39.59201,68.84401L39.52541,68.8917L39.45882,68.9402L39.39305,68.98871L39.32646,69.03721L39.26069,69.08654L39.1941,69.13505L38.86525,69.38168L38.8003,69.43183L38.73453,69.48198L38.66959,69.53131L38.60464,69.58228L38.47474,69.68258L38.40979,69.73355L38.34485,69.7837L38.28072,69.83467L38.21577,69.88564L38.15165,69.93744L38.08752,69.98841L38.0234,70.0402L37.95927,70.09118L37.89515,70.14297L37.83184,70.19476L37.76772,70.24656L37.70441,70.29917L37.64111,70.35097L37.32459,70.61405L36.9497,70.93467L36.88805,70.98893L36.82556,71.04237L36.57893,71.25941L36.51727,71.31449L36.45643,71.36875L36.39477,71.42384L36.21226,71.58908L36.15142,71.64499L36.09059,71.70007L36.02975,71.75597L35.8497,71.92369L35.78969,71.98041L35.72967,72.03632L35.60964,72.14977L35.37287,72.37668L35.25449,72.49177L35.19612,72.54932L35.13692,72.60687L35.02018,72.72197L34.96181,72.78034L34.90344,72.83789L34.84589,72.89626L34.78752,72.95463L34.67242,73.07137L34.61488,73.13056L34.55733,73.18893L34.44223,73.30732L34.21532,73.54409L34.10187,73.66412L34.04597,73.72414L33.98924,73.78415L33.87743,73.90418L33.82153,73.96502L33.76562,74.02503L33.71054,74.08587L33.65464,74.14671L33.48939,74.32922L33.43431,74.39088L33.38005,74.45171L33.32497,74.51337L33.10792,74.76001L33.05449,74.82249L33.00023,74.88415L32.73304,75.19656L32.6796,75.25986L32.62698,75.32234L32.41652,75.57556L32.36473,75.63886L32.31211,75.70216L32.26032,75.76629L32.20852,75.82959L32.10494,75.95784L32.00299,76.08609L31.9512,76.15022L31.90023,76.21517L31.84925,76.27929L31.79911,76.34424L31.74813,76.40919L31.64783,76.53908L31.59686,76.60403L31.54754,76.66898L31.49739,76.73475L31.44724,76.7997L31.2006,77.12855L31.15209,77.19514L31.10277,77.26091L31.05426,77.3275L31.00576,77.39327L30.95725,77.45986L30.90957,77.52645L30.86106,77.59304L30.81338,77.66046L30.71801,77.79364L30.62265,77.92847L30.4352,78.19813L30.38834,78.26636L30.34148,78.33378L30.29544,78.40201L30.2494,78.46943L30.11129,78.67414L30.06607,78.74237L30.02003,78.81143L29.9296,78.9479L29.8852,79.01696L29.83999,79.08602L29.79559,79.15508L29.75038,79.22414L29.66159,79.36225L29.61801,79.43131L29.57362,79.50119L29.53005,79.57107L29.48647,79.64013L29.35576,79.84977L29.31301,79.91965L29.26943,79.99035L29.22668,80.06024L29.18393,80.13094L29.142,80.20082L29.09925,80.27152L29.05733,80.3414L28.93154,80.55351L28.88961,80.62503L28.8074,80.76644L28.72519,80.90949L28.68408,80.98019L28.6438,81.05172L28.60269,81.12324L28.56241,81.19559L28.52212,81.26711L28.48266,81.33864L28.44238,81.41098L28.40292,81.48251L28.36263,81.55485L28.28371,81.69955L28.24507,81.77189L28.20561,81.84342L28.16697,81.91659L28.08969,82.06128L28.05187,82.13363L28.01323,82.2068L27.97541,82.27914L27.86196,82.49865L27.78797,82.64499L27.75015,82.71816L27.71316,82.79215L27.67698,82.86532L27.63999,82.93931L27.60381,83.01248L27.56682,83.08647L27.49447,83.23445L27.45912,83.30844L27.42295,83.38243L27.38759,83.45642L27.35224,83.53124L27.31689,83.60523L27.28236,83.67922L27.24701,83.75403L27.21248,83.82802L27.14342,83.97765L27.10972,84.05164L27.07519,84.12645L27.04148,84.20209L26.94036,84.42653L26.87459,84.5778L26.84088,84.65261L26.808,84.72825L26.77594,84.80388L26.74305,84.87952L26.6148,85.18206L26.58356,85.2577L26.5515,85.33415L26.52026,85.40979L26.48984,85.48542L26.42736,85.63834L26.39694,85.71397L26.30568,85.94335L26.24649,86.09626L26.21607,86.17354L26.1873,86.25L26.1577,86.32728L26.1281,86.40373L25.98423,86.79013L25.95628,86.86659L25.90037,87.02115L25.87324,87.09843L25.84529,87.17571L25.81816,87.25299L25.79103,87.33109L25.7639,87.40837L25.73759,87.48565L25.71046,87.56375L25.68416,87.64185L25.65785,87.71913L25.60523,87.87533L25.52878,88.10964L25.50329,88.18856L25.4778,88.26666L25.45314,88.34477L25.42765,88.42369L25.40299,88.50179L25.37833,88.58072L25.35449,88.65882L25.33064,88.73774L25.30598,88.81584L25.28296,88.89477L25.25912,88.97287L25.23528,89.05179L25.1432,89.36749L25.121,89.44641L25.09798,89.52533L25.07579,89.60426L25.05359,89.684L25.03221,89.76293L25.01002,89.84267L24.98864,89.9216L24.92452,90.16084L24.90396,90.23976L24.88259,90.32033L24.86203,90.40007L24.84148,90.479L24.80202,90.63849L24.78147,90.71741L24.76256,90.79716L24.7231,90.95665L24.70419,91.0364L24.68528,91.11696L24.64746,91.27646L24.62937,91.35702L24.61046,91.43677L24.59238,91.51734L24.57429,91.59708L24.55703,91.67765L24.53894,91.75822L24.46988,92.08049L24.38767,92.48333L24.37205,92.56308L24.32519,92.80478L24.31039,92.88617L24.26599,93.12788L24.2512,93.20927L24.23722,93.28983L24.22242,93.37122L24.20845,93.45179L24.19447,93.53318L24.18132,93.61457L24.16734,93.69596L24.12788,93.94013L24.11555,94.02152L24.10239,94.10291L24.09006,94.1843L24.07773,94.26487L24.06622,94.34626L24.05389,94.42765L24.04238,94.50822L24.01936,94.671L24.00867,94.75239L23.99716,94.83378L23.9651,95.07795L23.95523,95.15934L23.94454,95.24073L23.93468,95.32294L23.92481,95.40433L23.91495,95.48655L23.90591,95.56794L23.89604,95.65015L23.887,95.73154L23.87795,95.81375L23.86973,95.89596L23.86069,95.97818L23.85247,96.06039L23.83602,96.22317L23.82863,96.30456L23.8204,96.38595L23.81301,96.46734L23.80561,96.54955L23.79821,96.63094L23.79163,96.71315L23.78505,96.79454L23.77765,96.87676L23.77108,96.95815L23.76532,97.04036L23.75875,97.12257L23.75299,97.20478L23.74724,97.28617L23.73573,97.4506L23.72586,97.61502L23.72093,97.69806L23.71106,97.86248L23.70695,97.94469L23.70284,98.02773L23.69462,98.19051L23.69133,98.27272L23.68722,98.35411L23.68064,98.51853L23.67818,98.59992L23.67489,98.68214L23.66996,98.84656L23.66749,98.92795L23.66502,99.01016L23.66173,99.17459L23.66009,99.25762L23.6568,99.42205L23.65516,99.58647L23.65434,99.66951L23.65351,99.75172L23.65351,99.83475L23.65269,99.91697L23.65269,100.08221L23.65351,100.16525L23.65351,100.24746L23.65434,100.33049L23.65598,100.49492L23.6568,100.57795L23.66502,100.98901L23.67489,101.31786L23.67818,101.39925L23.68064,101.48147L23.68393,101.56368L23.68722,101.64507L23.69133,101.72728L23.69462,101.80867L23.69873,101.89088L23.70284,101.97227L23.70695,102.05448L23.71106,102.13752L23.73573,102.54858L23.75875,102.87743L23.76532,102.95882L23.77108,103.04103L23.77765,103.12324L23.78505,103.20463L23.79163,103.28685L23.79821,103.36824L23.80561,103.45045L23.8204,103.61323L23.82863,103.69462L23.83602,103.77683L23.85247,103.93961L23.86069,104.02182L23.86973,104.10404L23.87795,104.18543L23.89604,104.34985L23.90591,104.43124L23.91495,104.51345L23.92481,104.59484L23.93468,104.67706L23.94454,104.75845L23.95523,104.83984L23.9651,104.92205L23.99716,105.16622L24.00867,105.24761L24.01936,105.329L24.03087,105.41039L24.04238,105.49096L24.05389,105.57235L24.06622,105.65374L24.07773,105.73431L24.10239,105.89709L24.11555,105.97848L24.12788,106.05987L24.16734,106.30404L24.18132,106.38543L24.19447,106.466L24.22242,106.62878L24.23722,106.70934L24.2512,106.79073L24.28079,106.95187L24.29559,107.03326L24.32519,107.1944L24.38767,107.51667L24.40411,107.59724L24.42055,107.67698L24.45344,107.83812L24.46988,107.91951L24.53894,108.24178L24.55703,108.32153L24.57429,108.40209L24.59238,108.48266L24.61046,108.56241L24.62937,108.64298L24.64746,108.72272L24.66637,108.80329L24.7231,109.04253L24.76256,109.20202L24.78147,109.28177L24.80202,109.36151L24.82175,109.44126L24.84148,109.52018L24.88259,109.67967L24.90396,109.75942L24.92452,109.83916L24.96727,109.99866L24.98864,110.07758L25.01002,110.15733L25.03221,110.23625L25.05359,110.316L25.07579,110.39492L25.09798,110.47467L25.121,110.55359L25.1432,110.63251L25.21226,110.86928L25.23528,110.94739L25.28296,111.10523L25.30598,111.18334L25.33064,111.26226L25.37833,111.41846L25.42765,111.57631L25.45314,111.65441L25.4778,111.73334L25.60523,112.12384L25.71046,112.43625L25.73759,112.51353L25.7639,112.59163L25.84529,112.82347L25.87324,112.90075L25.90037,112.97803L25.98423,113.20987L26.09933,113.51899L26.1281,113.59544L26.1577,113.67272L26.1873,113.74918L26.21607,113.82646L26.24649,113.90292L26.30568,114.05583L26.42736,114.36166L26.4586,114.43812L26.48984,114.51375L26.52026,114.58939L26.5515,114.66585L26.58356,114.74148L26.6148,114.81712L26.71099,115.04402L26.74305,115.12048L26.77594,115.19612L26.808,115.27093L26.84088,115.34657L26.87459,115.4222L26.90748,115.49784L26.94036,115.57265L26.97407,115.64746L27.00777,115.7231L27.07519,115.87272L27.10972,115.94754L27.14342,116.02235L27.17795,116.09716L27.21248,116.17115L27.24701,116.24597L27.28236,116.31996L27.31689,116.39477L27.42295,116.61674L27.45912,116.69074L27.49447,116.76473L27.56682,116.91271L27.60381,116.9867L27.63999,117.06069L27.67698,117.13386L27.71316,117.20785L27.75015,117.28102L27.78797,117.35419L27.82496,117.42818L27.86196,117.50135L27.89978,117.57452L27.93759,117.64686L28.01323,117.7932L28.05187,117.86555L28.08969,117.93872L28.20561,118.15576L28.24507,118.22811L28.28371,118.30045L28.32317,118.3728L28.36263,118.44432L28.40292,118.51667L28.44238,118.58902L28.48266,118.66054L28.52212,118.73289L28.60269,118.87594L28.6438,118.94746L28.68408,119.01899L28.76629,119.16204L28.8074,119.23274L28.84851,119.30426L28.88961,119.37497L29.09925,119.72848L29.142,119.79836L29.18393,119.86906L29.22668,119.93894L29.26943,120.00965L29.31301,120.07953L29.35576,120.14941L29.57362,120.49881L29.61801,120.56787L29.66159,120.63692L29.70598,120.70681L29.75038,120.77586L29.79559,120.84492L29.83999,120.91398L29.8852,120.98222L29.9296,121.05127L29.97482,121.12033L30.02003,121.18857L30.06607,121.25681L30.11129,121.32504L30.29544,121.59799L30.34148,121.6654L30.38834,121.73364L30.4352,121.80105L30.48206,121.86929L30.62265,122.07153L30.67033,122.13812L30.7657,122.27295L30.86106,122.40613L30.90957,122.47272L30.95725,122.53932L31.05426,122.6725L31.10277,122.73827L31.15209,122.80486L31.2006,122.87063L31.44724,123.19948L31.49739,123.26525L31.54754,123.3302L31.59686,123.39597L31.64783,123.46092L31.74813,123.59081L31.79911,123.65576L31.84925,123.71989L31.90023,123.78483L31.9512,123.84896L32.00299,123.91391L32.10494,124.04216L32.15673,124.10628L32.20852,124.16959L32.26032,124.23371L32.31211,124.29702L32.36473,124.36114L32.41652,124.42444L32.57437,124.61435L32.62698,124.67684L32.6796,124.74014L32.73304,124.80262L32.78647,124.86592L32.94679,125.05337L33.00023,125.11503L33.05449,125.17751L33.10792,125.23917L33.16218,125.30165L33.32497,125.48663L33.38005,125.54746L33.43431,125.60912L33.48939,125.66996L33.54447,125.73162L33.65464,125.85329L33.71054,125.91413L33.76562,125.97415L33.82153,126.03498L33.87743,126.095L33.93334,126.15583L33.98924,126.21585L34.04597,126.27586L34.10187,126.33588L34.1586,126.39507L34.21532,126.45509L34.27205,126.51428L34.32878,126.5743L34.44223,126.69268L34.49978,126.75187L34.55733,126.81024L34.61488,126.86944L34.72997,126.98618L34.78752,127.04537L34.84589,127.10292L34.90344,127.16129L34.96181,127.21966L35.02018,127.27721L35.07855,127.33558L35.13692,127.39313L35.19612,127.45068L35.25449,127.50823L35.31368,127.56578L35.37287,127.6225L35.43207,127.68005L35.60964,127.85023L35.66966,127.90696L35.72967,127.96286L35.78969,128.01959L36.02975,128.2432L36.15142,128.35501L36.39477,128.57534L36.45643,128.63042L36.51727,128.68551L36.82556,128.95681L36.88805,129.01107L36.9497,129.0645L37.01219,129.11877L37.26211,129.33252L37.32459,129.38513L37.3879,129.43775L37.4512,129.49119L37.57781,129.59642L37.64111,129.64821L37.70441,129.70083L37.76772,129.75262L37.83184,129.80442L37.89515,129.85621L38.08752,130.01159L38.21577,130.11353L38.28072,130.16451L38.34485,130.21548L38.40979,130.26645L38.47474,130.3166L38.53969,130.36757L38.73453,130.51802L38.8003,130.56817L38.86525,130.61749L38.93102,130.66764L39.12833,130.81563L39.1941,130.86413L39.26069,130.91346L39.32646,130.96196L39.39305,131.01047L39.45882,131.05897L39.59201,131.15599L39.6586,131.20367L39.72601,131.25217L39.8592,131.34754L39.92661,131.3944L39.99402,131.44208L40.06144,131.48894L40.12885,131.53663L40.3311,131.67721L40.39933,131.72325L40.46757,131.77011L40.53498,131.81615L40.67145,131.90823L40.73969,131.95344L40.80793,131.99948L40.87698,132.0447L41.01346,132.13513L41.08252,132.18035L41.15157,132.22474L41.22063,132.26996L41.49687,132.44754L41.56675,132.49111L41.6358,132.53551L41.84545,132.66622L41.91533,132.70897L41.98521,132.75255L42.05591,132.7953L42.12579,132.83805L42.19649,132.8808L42.26637,132.92355L42.33707,132.96548L42.40696,133.00823L42.54836,133.09208L42.61906,133.13319L42.69059,133.17512L42.76129,133.21622L42.83199,133.25815L42.97504,133.34037L43.04574,133.38065L43.11727,133.42176L43.18879,133.46204L43.26114,133.50232L43.40419,133.58289L43.47654,133.62318L43.54806,133.66264L43.83745,133.82048L43.90897,133.85912L43.98214,133.89776L44.19918,134.01368L44.27235,134.0515L44.3447,134.08932L44.63737,134.24059L44.78371,134.31458L44.8577,134.35158L44.93087,134.38857L45.00486,134.42475L45.07803,134.46174L45.374,134.60643L45.52198,134.67714L45.59679,134.71249L45.74477,134.78319L45.81959,134.81772L45.89358,134.85225L46.0432,134.92131L46.11719,134.95584L46.19201,134.98954L46.26764,135.02325L46.49208,135.12437L46.56772,135.15808L46.64253,135.19096L46.86944,135.28962L46.94507,135.32168L47.02071,135.35457L47.17198,135.41869L47.24761,135.44993L47.32325,135.48199L47.39971,135.51324L47.55098,135.57572L47.62743,135.60696L47.70389,135.63738L47.77953,135.66779L48.08536,135.78947L48.16181,135.81907L48.23909,135.84866L48.31555,135.87826L48.39283,135.90785L48.46929,135.93663L48.54657,135.96623L48.70113,136.02377L48.77841,136.05173L48.85569,136.0805L48.93214,136.10845L49.16398,136.19231L49.31854,136.24657L49.39664,136.2737L49.5512,136.32796L49.6293,136.35427L49.7074,136.3814L49.78468,136.40771L49.86279,136.43319L50.01899,136.48581L50.17519,136.53678L50.25412,136.56226L50.33222,136.58693L50.41032,136.61241L50.48924,136.63708L50.56735,136.66174L50.64627,136.6864L50.72437,136.71107L50.80329,136.73491L50.8814,136.75875L50.96032,136.78259L51.03842,136.80643L51.19627,136.85247L51.27519,136.87632L51.35412,136.89933L51.43304,136.92153L51.51196,136.94455L51.66981,136.98895L51.74956,137.01114L51.82848,137.03334L51.90823,137.05472L51.98715,137.07691L52.14664,137.11966L52.22639,137.14022L52.30531,137.16159L52.38506,137.18214L52.46563,137.2027L52.54455,137.22325L52.6243,137.2438L52.70404,137.26353L52.78297,137.28327L52.94246,137.32273L53.10195,137.36055L53.18252,137.38028L53.26226,137.39919L53.34201,137.41727L53.42258,137.43618L53.50232,137.45427L53.58289,137.47235L53.66264,137.49044L53.74321,137.50853L53.82377,137.52579L53.90434,137.54388L54.06548,137.57841L54.14605,137.59485L54.22661,137.61211L54.46832,137.66144L54.54889,137.67706L54.62863,137.69268L54.87034,137.73954L54.95173,137.75516L55.19343,137.79956L55.27482,137.81354L55.35539,137.82833L55.43678,137.84231L55.51735,137.85629L55.68013,137.88424L56.08708,137.95001L56.24986,137.97467L56.33043,137.987L56.41182,137.99933L56.49321,138.01084L56.57377,138.02235L56.81794,138.05688L56.89933,138.06757L56.98072,138.07908L57.06211,138.08977L57.1435,138.09963L57.2249,138.11032L57.30629,138.12019L57.3885,138.13005L57.46989,138.13992L57.5521,138.14978L57.63349,138.15965L57.7157,138.16869L57.79709,138.17774L57.96152,138.19582L58.04373,138.20404L58.12594,138.21309L58.20733,138.22131L58.28872,138.22871L58.37011,138.23693L58.53289,138.25173L58.6151,138.25913L58.69649,138.26652L58.77871,138.27392L58.8601,138.2805L58.94231,138.28708L59.0237,138.29365L59.10591,138.30023L59.27034,138.31174L59.35173,138.31832L59.43394,138.32325L59.51615,138.32901L59.59836,138.33394L59.68058,138.33969L59.76361,138.34463L59.84582,138.34956L59.92803,138.35367L60.01025,138.3586L60.09328,138.36271L60.17467,138.36682L60.25606,138.37011L60.33827,138.37422L60.41966,138.37751L60.58409,138.38409L60.66548,138.38738L60.74769,138.38984L60.8299,138.39313L60.91212,138.3956L60.99351,138.39724L61.15793,138.40217L61.24014,138.40382L61.32318,138.40546L61.40539,138.40711L61.56981,138.40875L61.65203,138.4104L61.73506,138.41122L61.81727,138.41122L61.90031,138.41204L62.2308,138.41204L62.31301,138.41122L62.39605,138.41122L62.47826,138.4104L62.56047,138.40875L62.64351,138.40793L62.72572,138.40711L62.97236,138.40217L63.13678,138.39724L63.21899,138.3956L63.3012,138.39313L63.38259,138.38984L63.46481,138.38738L63.62923,138.3808L63.71062,138.37751L63.79283,138.37422L63.87422,138.37011L63.95644,138.36682L64.03783,138.36271L64.12004,138.3586L64.20225,138.35367L64.28529,138.34956L64.44971,138.33969L64.53192,138.33394L64.61413,138.32901L64.69635,138.32325L64.77856,138.31832L64.86077,138.31174L64.94298,138.30599L65.02437,138.30023L65.1888,138.28708L65.27019,138.2805L65.3524,138.27392L65.43379,138.26652L65.516,138.25913L65.76017,138.23693L65.84239,138.22871L65.92378,138.22131L66.00517,138.21309L66.08738,138.20404L66.16959,138.19582L66.25098,138.18678L66.41541,138.16869L66.4968,138.15965L66.57901,138.14978L66.6604,138.13992L66.74261,138.13005L66.90539,138.11032L66.9876,138.09963L67.06899,138.08977L67.15038,138.07908L67.23177,138.06757L67.31316,138.05688L67.39455,138.04537L67.47512,138.03386L67.71929,137.99933L67.79986,137.987L67.88125,137.97467L67.96182,137.96234L68.04403,137.95001L68.45098,137.88424L68.53155,137.87026L68.69433,137.84231L68.7749,137.82833L68.85629,137.81354L68.93686,137.79956L69.01742,137.78476L69.09881,137.76996L69.17938,137.75516L69.66279,137.66144L69.74254,137.645L69.90367,137.61211L69.98506,137.59485L70.06563,137.57841L70.22677,137.54388L70.30733,137.52579L70.38708,137.50853L70.54822,137.47235L70.62796,137.45427L70.70853,137.43618L70.78828,137.41727L70.86884,137.39919L70.94859,137.38028L71.02834,137.36055L71.18783,137.32273L71.50681,137.2438L71.58573,137.22325L71.82497,137.16159L71.90472,137.14022L71.98446,137.11966L72.06421,137.09829L72.14313,137.07691L72.22288,137.05472L72.3018,137.03334L72.38155,137.01114L72.46047,136.98895L72.54022,136.96675L72.61914,136.94455L72.69807,136.92153L72.77699,136.89933L72.85591,136.87632L72.93484,136.85247L73.01294,136.82945L73.09186,136.80643L73.17079,136.78259L73.24889,136.75875L73.32781,136.73491L73.40591,136.71107L73.48402,136.6864L73.64186,136.63708L73.71997,136.61241L73.79889,136.58693L73.87699,136.56226L74.1113,136.48581L74.2675,136.43319L74.3456,136.40771L74.4237,136.3814L74.5018,136.35427L74.57908,136.32796L74.65719,136.30083L74.9663,136.19231L75.27542,136.0805L75.3527,136.05173L75.42998,136.02377L75.58454,135.96623L75.661,135.93663L75.73828,135.90785L75.81473,135.87826L75.89201,135.84866L76.04493,135.78947L76.50367,135.60696L76.65494,135.54448L76.7314,135.51324L76.80704,135.48199L76.88267,135.44993L76.95831,135.41869L77.10958,135.35457L77.18604,135.32168L77.26167,135.28962L77.33648,135.25673L77.56339,135.15808L77.71302,135.09066L77.78865,135.05696L78.01309,134.95584L78.16272,134.88678L78.23671,134.85225L78.31152,134.81772L78.38551,134.78319L78.46033,134.74784L78.75629,134.60643L79.05225,134.46174L79.12624,134.42475L79.19941,134.38857L79.2734,134.35158L79.41974,134.27759L79.49373,134.24059L79.64007,134.16495L79.71242,134.12714L79.85876,134.0515L79.9311,134.01368L80.00427,133.97504L80.29366,133.82048L80.43835,133.74156L80.50988,133.7021L80.65457,133.62318L80.7261,133.58289L80.79844,133.54261L81.01302,133.42176L81.08454,133.38065L81.15607,133.34037L81.22677,133.29926L81.29829,133.25815L81.36982,133.21622L81.44052,133.17512L81.51122,133.13319L81.58193,133.09208L81.72333,133.00823L81.79403,132.96548L81.86391,132.92355L81.93462,132.8808L82.0045,132.83805L82.0752,132.7953L82.14508,132.75255L82.21496,132.70897L82.28484,132.66622L82.49448,132.53551L82.56436,132.49111L82.63342,132.44754L82.70248,132.40315L82.77236,132.35875L82.91048,132.26996L82.97953,132.22474L83.04777,132.18035L83.18589,132.08992L83.32236,131.99948L83.3906,131.95344L83.45883,131.90823L83.66354,131.77011L83.73095,131.72325L83.79919,131.67721L83.8666,131.63035L83.93484,131.58349L84.00225,131.53663L84.06967,131.48894L84.13708,131.44208L84.20367,131.3944L84.27109,131.34754L84.33768,131.29986L84.40509,131.25217L84.47169,131.20367L84.53828,131.15599L84.73805,131.01047L84.80382,130.96196L84.87042,130.91346L84.93619,130.86413L85.00196,130.81563L85.19927,130.66764L85.26504,130.61749L85.3308,130.56817L85.4607,130.46787L85.52647,130.41772L85.59142,130.36757L85.65637,130.3166L85.72131,130.26645L85.78544,130.21548L85.85039,130.16451L85.91451,130.11353L85.97946,130.06256L86.04359,130.01159L86.17184,129.908L86.23514,129.85621L86.29927,129.80442L86.36257,129.75262L86.42669,129.70083L86.49,129.64821L86.5533,129.59642L86.67991,129.49119L86.74239,129.43775L86.80569,129.38513L86.86817,129.33252L86.93148,129.27908L87.11892,129.11877L87.18058,129.0645L87.24306,129.01107L87.30472,128.95681L87.3672,128.90255L87.55218,128.73977L87.61302,128.68551L87.67468,128.63042L87.73551,128.57534L87.79717,128.52026L87.97968,128.35501L88.0397,128.29911L88.10054,128.2432L88.16055,128.1873L88.22139,128.1314L88.34142,128.01959L88.40143,127.96286L88.46063,127.90696L88.52064,127.85023L88.57983,127.7935L88.63985,127.73678L88.69904,127.68005L88.75823,127.6225L88.81743,127.56578L88.8758,127.50823L88.93499,127.45068L89.05173,127.33558L89.11093,127.27721L89.34276,127.04537L89.40113,126.98618L89.51623,126.86944L89.57378,126.81024L89.63133,126.75187L89.68806,126.69268L89.7456,126.63349L89.80233,126.5743L89.85906,126.51428L89.91578,126.45509L89.97251,126.39507L90.02841,126.33588L90.08514,126.27586L90.19695,126.15583L90.25285,126.095L90.30876,126.03498L90.36466,125.97415L90.42057,125.91413L90.58581,125.73162L90.6409,125.66996L90.69598,125.60912L90.75106,125.54746L90.80532,125.48663L90.9681,125.30165L91.02236,125.23917L91.07662,125.17751L91.13006,125.11503L91.18432,125.05337L91.34463,124.86592L91.39725,124.80262L91.45069,124.74014L91.5033,124.67684L91.55674,124.61435L91.66197,124.48775L91.71377,124.42444L91.76638,124.36114L91.81818,124.29702L91.86997,124.23371L91.92176,124.16959L91.97356,124.10628L92.07714,123.97803L92.12812,123.91391L92.17909,123.84896L92.23006,123.78483L92.28103,123.71989L92.332,123.65576L92.38215,123.59081L92.43312,123.52586L92.53342,123.39597L92.58357,123.3302L92.63372,123.26525L92.68305,123.19948L92.7332,123.13371L92.88118,122.9364L92.92969,122.87063L92.97901,122.80486L93.02752,122.73827L93.07602,122.6725L93.22154,122.47272L93.31691,122.33954L93.36541,122.27295L93.41309,122.20553L93.45995,122.13812L93.50764,122.07153L93.5545,122.00411L93.60218,121.9367L93.64904,121.86929L93.6959,121.80105L93.74276,121.73364L93.7888,121.6654L93.83566,121.59799L93.97378,121.39328L94.019,121.32504L94.06504,121.25681L94.15547,121.12033L94.2459,120.98222L94.2903,120.91398L94.33552,120.84492L94.4243,120.70681L94.4687,120.63692L94.51309,120.56787L94.55667,120.49881L94.60106,120.42893L94.73178,120.21929L94.77453,120.14941L94.8181,120.07953L94.86085,120.00965L94.9036,119.93894L94.94635,119.86906L94.9891,119.79836L95.03103,119.72848L95.07378,119.65778L95.15764,119.51637L95.19874,119.44567L95.24067,119.37497L95.28178,119.30426L95.32371,119.23274L95.36481,119.16204L95.40592,119.09051L95.4462,119.01899L95.48731,118.94746L95.60816,118.73289L95.64845,118.66054L95.68873,118.58902L95.76765,118.44432L95.80711,118.3728L95.88604,118.22811L96.0406,117.93872L96.07924,117.86555L96.11706,117.7932L96.19269,117.64686L96.23051,117.57452L96.30614,117.42818L96.34314,117.35419L96.41713,117.20785L96.45413,117.13386L96.4903,117.06069L96.52729,116.9867L96.67199,116.69074L96.81339,116.39477L96.84874,116.31996L96.88327,116.24597L96.9178,116.17115L96.95233,116.09716L97.02139,115.94754L97.12251,115.7231L97.15622,115.64746L97.22363,115.49784L97.32229,115.27093L97.35517,115.19612L97.38723,115.12048L97.42012,115.04402L97.48425,114.89275L97.51549,114.81712L97.54755,114.74148L97.57879,114.66585L97.61003,114.58939L97.67251,114.43812L97.85502,113.97937L97.91422,113.82646L97.94381,113.74918L97.97341,113.67272L98.00218,113.59544L98.03178,113.51899L98.08933,113.36443L98.11728,113.28715L98.14605,113.20987L98.25786,112.90075L98.36638,112.59163L98.39351,112.51353L98.41982,112.43625L98.44695,112.35815L98.47326,112.28005L98.49874,112.20195L98.55136,112.04574L98.62782,111.81144L98.65248,111.73334L98.67797,111.65441L98.70263,111.57631L98.75196,111.41846L98.77662,111.34036L98.80046,111.26226L98.82431,111.18334L98.84815,111.10523L98.87199,111.02631L98.89501,110.94739L98.91803,110.86928L98.94187,110.79036L98.96407,110.71144L99.01011,110.55359L99.0323,110.47467L99.0545,110.39492L99.0767,110.316L99.09889,110.23625L99.12027,110.15733L99.14247,110.07758L99.16384,109.99866L99.18522,109.91891L99.20577,109.83916L99.22715,109.75942L99.2888,109.52018L99.30854,109.44126L99.32909,109.36151L99.38828,109.12227L99.4261,108.96278L99.44583,108.88304L99.46474,108.80329L99.48283,108.72272L99.50173,108.64298L99.51982,108.56241L99.53791,108.48266L99.57408,108.32153L99.59135,108.24178L99.60943,108.16121L99.64396,108.00008L99.6604,107.91951L99.67767,107.83812L99.71055,107.67698L99.727,107.59724L99.82072,107.11383L99.83552,107.03326L99.85031,106.95187L99.86511,106.8713L99.87909,106.79073L99.89389,106.70934L99.90786,106.62878L99.93582,106.466L99.94979,106.38543L100.01556,105.97848L100.05256,105.73431L100.06489,105.65374L100.08791,105.49096L100.09942,105.41039L100.12244,105.24761L100.16519,104.92205L100.17588,104.83984L100.19561,104.67706L100.20547,104.59484L100.21534,104.51345L100.2252,104.43124L100.23425,104.34985L100.25233,104.18543L100.26138,104.10404L100.2696,104.02182L100.27864,103.93961L100.28686,103.85822L100.29426,103.77683L100.30248,103.69462L100.32468,103.45045L100.33208,103.36824L100.33948,103.28685L100.34605,103.20463L100.35263,103.12324L100.36579,102.95882L100.37154,102.87743L100.3773,102.79522L100.38387,102.71301L100.3888,102.63079L100.39456,102.54858L100.39949,102.46637L100.40525,102.38416L100.41511,102.21973L100.41922,102.13752L100.42416,102.05448L100.42827,101.97227L100.43238,101.89088L100.43567,101.80867L100.43978,101.72728L100.44306,101.64507L100.44635,101.56368L100.45293,101.39925L100.4554,101.31786L100.45869,101.23565L100.46115,101.15344L100.4628,101.07123L100.46526,100.98901L100.46691,100.9068L100.46937,100.82459L100.47102,100.74238L100.47184,100.66016L100.47348,100.57795L100.47431,100.49492L100.47595,100.41271L100.47677,100.33049L100.47677,100.24746L100.47759,100.16525L100.47759,99.83475L100.47677,99.75172L100.47677,99.66951L100.47595,99.58647L100.47431,99.50426L100.47348,99.42205L100.47184,99.33984L100.47102,99.25762L100.46937,99.17459L100.46691,99.09238L100.46526,99.01016L100.4628,98.92795L100.46115,98.84656L100.45869,98.76435L100.4554,98.68214L100.45293,98.59992L100.44964,98.51853L100.44306,98.35411L100.43978,98.27272L100.43567,98.19051L100.43238,98.10912L100.42827,98.02773L100.42416,97.94469L100.41922,97.86248L100.41511,97.78027L100.41018,97.69806L100.40525,97.61502L100.39949,97.53281L100.39456,97.4506L100.3888,97.36839L100.38387,97.28617L100.3773,97.20478L100.36579,97.04036L100.35921,96.95815L100.35263,96.87676L100.34605,96.79454L100.33948,96.71315L100.33208,96.63094L100.32468,96.54955L100.31728,96.46734L100.30248,96.30456L100.29426,96.22317L100.28686,96.14178L100.27864,96.06039L100.2696,95.97818L100.26138,95.89596L100.24329,95.73154L100.23425,95.65015L100.2252,95.56794L100.21534,95.48655L100.20547,95.40433L100.19561,95.32294L100.18574,95.24073L100.17588,95.15934L100.12244,94.75239L100.08791,94.50822L100.0764,94.42765L100.06489,94.34626L100.05256,94.26487L100.04022,94.1843L100.01556,94.02152L99.94979,93.61457L99.92184,93.45179L99.90786,93.37122L99.89389,93.28983L99.87909,93.20927L99.86511,93.12788L99.82072,92.88617L99.8051,92.80478L99.75824,92.56308L99.74262,92.48333L99.727,92.40276L99.67767,92.16106L99.6604,92.08049L99.64396,91.99992L99.60943,91.83879L99.59135,91.75822L99.57408,91.67765L99.55599,91.59708L99.53791,91.51734L99.51982,91.43677L99.50173,91.35702L99.48283,91.27646L99.46474,91.19671L99.44583,91.11696L99.4261,91.0364L99.38828,90.8769L99.34882,90.71741L99.32909,90.63849L99.30854,90.55874L99.2888,90.479L99.26825,90.40007L99.2477,90.32033L99.22715,90.23976L99.20577,90.16084L99.18522,90.08109L99.14247,89.9216L99.12027,89.84267L99.09889,89.76293L99.0767,89.684L99.0545,89.60426L99.01011,89.44641L98.96407,89.28856L98.94187,89.20964L98.91803,89.13072L98.87199,88.97287L98.84815,88.89477L98.82431,88.81584L98.80046,88.73774L98.77662,88.65882L98.75196,88.58072L98.72729,88.50179L98.70263,88.42369L98.67797,88.34477L98.65248,88.26666L98.62782,88.18856L98.60233,88.10964L98.55136,87.95344L98.49874,87.79723L98.47326,87.71913L98.44695,87.64185L98.41982,87.56375L98.39351,87.48565L98.33925,87.33109L98.31212,87.25299L98.25786,87.09843L98.17401,86.86659L98.14605,86.79013L98.11728,86.71285L98.08933,86.63557L98.03178,86.48101L98.00218,86.40373L97.97341,86.32728L97.94381,86.25L97.91422,86.17354L97.88462,86.09626L97.85502,86.0198L97.73335,85.71397L97.70293,85.63834L97.67251,85.56188L97.64127,85.48542L97.57879,85.33415L97.54755,85.2577L97.51549,85.18206L97.48425,85.10642L97.42012,84.95515L97.38723,84.87952L97.35517,84.80388L97.2894,84.65261L97.25652,84.5778L97.22363,84.50216L97.18993,84.42653L97.0888,84.20209L97.0551,84.12645L97.02139,84.05164L96.98686,83.97765L96.9178,83.82802L96.88327,83.75403L96.84874,83.67922L96.77804,83.53124L96.74269,83.45642L96.67199,83.30844L96.52729,83.01248L96.4903,82.93931L96.45413,82.86532L96.41713,82.79215L96.38013,82.71816L96.30614,82.57182L96.15487,82.27914L96.11706,82.2068L96.07924,82.13363L95.96332,81.91659L95.92468,81.84342L95.88604,81.77189L95.72819,81.48251L95.68873,81.41098L95.64845,81.33864L95.56788,81.19559L95.52759,81.12324L95.48731,81.05172L95.4462,80.98019L95.40592,80.90949L95.32371,80.76644L95.28178,80.69574L95.24067,80.62503L95.19874,80.55351L95.15764,80.48281L95.07378,80.3414L95.03103,80.27152L94.9891,80.20082L94.94635,80.13094L94.9036,80.06024L94.86085,79.99035L94.8181,79.91965L94.77453,79.84977L94.73178,79.77989L94.64463,79.64013L94.60106,79.57107L94.55667,79.50119L94.51309,79.43131L94.33552,79.15508L94.2903,79.08602L94.2459,79.01696L94.20069,78.9479L94.11025,78.81143L94.06504,78.74237L94.019,78.67414L93.97378,78.6059L93.8817,78.46943L93.83566,78.40201L93.7888,78.33378L93.74276,78.26636L93.6959,78.19813L93.60218,78.0633L93.5545,77.99589L93.50764,77.92847L93.45995,77.86106L93.41309,77.79364L93.36541,77.72705L93.31691,77.66046L93.26922,77.59304L93.22154,77.52645L93.12453,77.39327L93.07602,77.3275L93.02752,77.26091L92.97901,77.19514L92.92969,77.12855L92.88118,77.06278L92.7332,76.86547L92.68305,76.7997L92.63372,76.73475L92.58357,76.66898L92.43312,76.47414L92.38215,76.40919L92.332,76.34424L92.28103,76.27929L92.23006,76.21517L92.17909,76.15022L92.07714,76.02197L91.92176,75.82959L91.86997,75.76629L91.81818,75.70216L91.76638,75.63886L91.71377,75.57556L91.66197,75.51225L91.55674,75.38565L91.5033,75.32234L91.45069,75.25986L91.39725,75.19656L91.34463,75.13408L91.18432,74.94663L91.13006,74.88415L91.07662,74.82249L91.02236,74.76001L90.75106,74.45171L90.69598,74.39088L90.6409,74.32922L90.42057,74.08587L90.36466,74.02503L90.30876,73.96502L90.25285,73.90418L90.08514,73.72414L90.02841,73.66412L89.97251,73.60411L89.91578,73.54409L89.7456,73.36651L89.68806,73.30732L89.63133,73.24813L89.57378,73.18893L89.51623,73.13056L89.45868,73.07137L89.40113,73.013L89.34276,72.95463L89.28522,72.89626L89.22684,72.83789L89.16847,72.78034L89.11093,72.72197L89.05173,72.66442L88.93499,72.54932L88.8758,72.49177L88.81743,72.43422L88.75823,72.37668L88.63985,72.26322L88.57983,72.2065L88.52064,72.14977L88.46063,72.09304L88.40143,72.03632L88.34142,71.98041L88.2814,71.92369L88.22139,71.86778L88.16055,71.81188L88.10054,71.75597L88.0397,71.70007L87.97968,71.64499L87.91885,71.58908L87.79717,71.47892L87.73551,71.42384L87.67468,71.36875L87.61302,71.31449L87.55218,71.25941L87.3672,71.09663L87.30472,71.04237L87.24306,70.98893L87.18058,70.93467L87.11892,70.88123L86.93148,70.72092L86.86817,70.66748L86.80569,70.61405L86.74239,70.56143L86.67991,70.50881L86.49,70.35097L86.42669,70.29917L86.36257,70.24656L86.29927,70.19476L86.23514,70.14297L86.17184,70.09118L86.10771,70.0402L86.04359,69.98841L85.97946,69.93744L85.91451,69.88564L85.85039,69.83467L85.78544,69.7837L85.72131,69.73355L85.65637,69.68258L85.52647,69.58228L85.4607,69.53131L85.39575,69.48198L85.3308,69.43183L85.26504,69.38168L84.93619,69.13505L84.87042,69.08654L84.80382,69.03721L84.73805,68.98871L84.60487,68.8917L84.53828,68.84401L84.47169,68.79551L84.40509,68.74783L84.33768,68.70014L84.27109,68.65246L84.20367,68.60478L84.13708,68.55709L83.93484,68.41651L83.8666,68.36965L83.79919,68.32279L83.73095,68.27593L83.66354,68.22989L83.3906,68.04573L83.32236,68.00052L83.25412,67.95448L83.18589,67.90926L83.11683,67.86404L83.04777,67.81965L82.97953,67.77443L82.91048,67.73004L82.84142,67.68482L82.77236,67.64043L82.70248,67.59603L82.63342,67.55246L82.56436,67.50807L82.21496,67.2902L82.14508,67.24745L82.0752,67.20388L82.0045,67.16113L81.93462,67.11838L81.86391,67.07645L81.79403,67.0337L81.44052,66.82406L81.36982,66.78295L81.22677,66.70074L81.15607,66.65963L81.08454,66.61853L81.01302,66.57824L80.94149,66.53714L80.79844,66.45657L80.7261,66.41711L80.65457,66.37682L80.58222,66.33736L80.50988,66.29708L80.43835,66.25762L80.36601,66.21815L80.29366,66.17952L80.22131,66.14005L80.00427,66.02413L79.9311,65.98632L79.85876,65.94768L79.71242,65.87204L79.64007,65.83422L79.5669,65.79641L79.49373,65.75941L79.41974,65.72241L79.34657,65.6846L79.2734,65.6476L79.19941,65.61143L79.12624,65.57443L79.05225,65.53826L78.97826,65.50126L78.83028,65.42892L78.75629,65.39357L78.6823,65.35739L78.46033,65.25134L78.38551,65.21681L78.31152,65.18228L78.23671,65.14693L78.16272,65.1124L78.0879,65.07787L78.01309,65.04416L77.93828,65.00963L77.78865,64.94222L77.71302,64.90851L77.6382,64.87481L77.56339,64.84192L77.48775,64.80904L77.41212,64.77533L77.33648,64.74327L77.26167,64.71038L77.18604,64.6775L77.10958,64.64543L76.88267,64.54925L76.7314,64.48676L76.65494,64.4547L76.57931,64.42428L76.50367,64.39304L76.42722,64.3618L76.12139,64.24013L75.96847,64.18093L75.89201,64.15052L75.81473,64.12174L75.73828,64.09215L75.661,64.06255L75.58454,64.03377L75.27542,63.91868L75.04358,63.83482L74.9663,63.80769L74.88902,63.77974L74.65719,63.69835L74.57908,63.67204L74.5018,63.64491L74.1894,63.53968L73.79889,63.41225L73.71997,63.38759L73.64186,63.3621L73.48402,63.31277L73.32781,63.26509L73.24889,63.24043L73.17079,63.21741L73.01294,63.16972L72.93484,63.1467L72.69807,63.07765L72.61914,63.05545L72.54022,63.03243L72.46047,63.01023L72.38155,62.98803L72.3018,62.96666L72.22288,62.94446L72.14313,62.92309L72.06421,62.90171L71.90472,62.85896L71.82497,62.83841L71.74523,62.81703L71.66548,62.79648L71.58573,62.77675L71.50681,62.7562L71.10808,62.65754L70.86884,62.60081L70.78828,62.58191L70.70853,62.56382L70.62796,62.54491L70.54822,62.52682L70.46765,62.50874L70.38708,62.49147L70.30733,62.47339L69.98506,62.40433L69.90367,62.38789L69.74254,62.355L69.66279,62.33856L69.58222,62.32212L69.25995,62.25963L69.09881,62.23004L69.01742,62.21524L68.85629,62.18564L68.7749,62.17167L68.69433,62.15687L68.53155,62.12892L68.45098,62.11576L68.36959,62.10179L68.12542,62.06232L68.04403,62.04999L67.96182,62.03684L67.88125,62.02451L67.79986,62.01217L67.71929,62.00067L67.6379,61.98833L67.47512,61.96531L67.39455,61.9538L67.31316,61.94312L67.23177,61.93161L66.9876,61.89954L66.90539,61.88968L66.824,61.87899L66.74261,61.86913L66.6604,61.85926L66.57901,61.84939L66.4968,61.84035L66.41541,61.83049L66.25098,61.8124L66.16959,61.80418L66.08738,61.79513L66.00517,61.78691L65.84239,61.77047L65.76017,61.76307L65.67878,61.75485L65.516,61.74005L65.43379,61.73265L65.3524,61.72608L65.27019,61.7195L65.1888,61.7121L65.10659,61.70635L65.02437,61.69977L64.94298,61.69319L64.61413,61.67017L64.28529,61.65044L64.20225,61.64551L64.03783,61.63729L63.95644,61.63318L63.87422,61.62907L63.79283,61.62578L63.71062,61.62167L63.62923,61.61838L63.54702,61.61509L63.46481,61.61262L63.38259,61.60933L63.3012,61.60687L63.05457,61.59947L62.64351,61.59125L62.56047,61.59043L62.39605,61.58878L62.31301,61.58796L62.2308,61.58796L62.14777,61.58714z"></path>
      <g>
        <path x="0" y="0" d="M61.98504,104.77967c-2.08742,0 -4.60303,-0.10705 -7.54683,-0.32114L54.43821,126.45673L47.13223,126.45673L47.13223,73.86978L62.62732,73.54864c4.44246,-0.10705 7.94826,1.27119 10.51739,4.1347c2.56913,2.86351 3.8537,6.54326 3.8537,11.03925c0,4.38894 -1.41838,8.16235 -4.25513,11.32024c-2.83675,3.15789 -6.42283,4.73684 -10.75825,4.73684z M61.6639,78.36576L54.43821,78.52633L54.43821,99.32026L60.86104,99.23997c2.7297,-0.05352 4.89741,-1.124 6.50312,-3.21142c1.60571,-1.92685 2.40856,-4.28189 2.40856,-7.06512c0,-7.17216 -2.70294,-10.70472 -8.10883,-10.59768z"></path>
      </g>
    </g>
    <g>
      <g>
        <path x="0" y="0" d="M125.91701,102.05652c-1.87942,0 -4.14436,-0.09638 -6.79482,-0.28914L119.12218,121.57356L112.54422,121.57356L112.54422,74.22666L126.49529,73.93752c3.99979,-0.09638 7.15625,1.14452 9.46938,3.7227c2.31313,2.57818 3.4697,5.89126 3.4697,9.93924c0,3.9516 -1.27704,7.34901 -3.83112,10.19223c-2.55408,2.84322 -5.78283,4.26484 -9.68624,4.26484z M125.62787,78.27464L119.12218,78.41921L119.12218,97.14111L124.90501,97.06883c2.4577,-0.04819 4.40941,-1.01199 5.85511,-2.89141c1.44571,-1.73485 2.16856,-3.85522 2.16856,-6.36111c0,-6.45749 -2.43361,-9.63805 -7.30082,-9.54167z"></path>
        <path x="0" y="0" d="M151.00002,102.56252c0,7.32492 2.07218,11.90299 6.21654,13.73422c1.63847,0.72285 3.34922,1.10838 5.13226,1.15657c2.89141,0 6.12016,-1.59028 9.68624,-4.77083L174.99876,116.80273c-3.9516,3.75884 -8.36101,5.63826 -13.22822,5.63826c-6.69844,0 -11.46927,-2.50589 -14.3125,-7.51768c-1.83123,-3.22875 -2.74684,-7.10806 -2.74684,-11.63794c0,-5.63826 1.4698,-10.19223 4.40941,-13.66193c3.13237,-3.71065 7.46949,-5.56597 13.01136,-5.56597c4.04798,0 7.27672,1.30114 9.68624,3.90341c2.40951,2.60227 3.61427,5.95149 3.61427,10.04766L175.43247,102.56252z M169.57736,96.99654c0,-5.39731 -2.67456,-8.09596 -8.02367,-8.09596c-2.9396,0 -5.15635,0.7349 -6.65025,2.2047c-1.4939,1.4698 -2.62637,3.7227 -3.39741,6.75868L169.57736,97.86397L169.57736,96.99654z"></path>
        <path d="M200.15406,91.21372c-0.91561,-0.62647 -2.24085,-0.91561 -3.97569,-0.86742c-1.34933,0 -2.95165,0.9638 -4.80698,2.89141c-1.85532,1.92761 -2.78299,3.54198 -2.78299,4.84312L188.5884,121.57356L182.80558,121.57356L182.80558,84.92489L188.5884,84.92489L188.5884,90.99686c2.89141,-4.57807 5.95149,-6.86711 9.18024,-6.86711c0.81923,0 2.21675,0.38552 4.19255,1.15657L200.15406,91.21372z"></path>
        <path d="M228.27306,73.35924c-2.31313,-1.4939 -4.4335,-2.24085 -6.36111,-2.24085c-2.07218,-0.04819 -3.63836,1.01199 -4.69855,3.18056c-0.72285,1.68666 -1.08428,3.68655 -1.08428,5.99968L216.12912,84.92489L226.39364,84.92489L226.39364,89.76801L216.12912,89.76801L216.12912,121.57356L210.49086,121.57356L210.49086,89.76801L204.70803,89.76801L204.70803,84.92489L210.49086,84.92489L210.49086,80.08177c0,-3.90341 0.89152,-7.10806 2.67456,-9.61395c1.9758,-2.74684 4.86721,-4.12026 8.67424,-4.12026c2.21675,0 3.9275,0.24095 5.13226,0.72285c0.33733,0.14457 1.71075,0.9879 4.12026,2.52999L228.27306,73.35924z"></path>
        <path x="0" y="0" d="M247.71782,122.3687c-6.65025,0 -11.46927,-2.4818 -14.45707,-7.44539c-2.02399,-3.42151 -3.03598,-7.4213 -3.03598,-11.99937c0,-6.36111 1.99989,-11.3247 5.99968,-14.89078c3.27694,-2.89141 7.13215,-4.33712 11.56566,-4.33712c4.38531,0 8.14415,1.44571 11.27651,4.33712c3.85522,3.56608 5.78283,8.52967 5.78283,14.89078c0,4.4335 -1.13247,8.45739 -3.39741,12.07165c-3.08417,4.9154 -7.66225,7.37311 -13.73422,7.37311z M248.15153,88.61144c-3.90341,0 -6.8912,1.54209 -8.96338,4.62626c-1.73485,2.65046 -2.60227,6.02378 -2.60227,10.11995c0,3.90341 0.81923,7.10806 2.4577,9.61395c1.92761,3.03598 4.72264,4.57807 8.3851,4.62626c3.80703,0 6.65025,-1.56618 8.52967,-4.69855c1.68666,-2.60227 2.52999,-5.9033 2.52999,-9.90309c0,-3.80703 -0.77104,-7.01168 -2.31313,-9.61395c-1.78304,-3.18056 -4.4576,-4.77083 -8.02367,-4.77083z"></path>
        <path d="M289.78789,91.21372c-0.91561,-0.62647 -2.24085,-0.91561 -3.97569,-0.86742c-1.34933,0 -2.95165,0.9638 -4.80698,2.89141c-1.85532,1.92761 -2.78299,3.54198 -2.78299,4.84312L278.22223,121.57356L272.4394,121.57356L272.4394,84.92489L278.22223,84.92489L278.22223,90.99686c2.89141,-4.57807 5.95149,-6.86711 9.18024,-6.86711c0.81923,0 2.21675,0.38552 4.19255,1.15657L289.78789,91.21372z"></path>
        <path d="M339.95392,121.57356L339.95392,95.98455c0,-4.77083 -2.16856,-7.18034 -6.50568,-7.22853c-1.34933,0 -3.06008,0.79514 -5.13226,2.38542c-2.50589,1.92761 -3.75884,4.12026 -3.75884,6.57797L324.55714,121.57356L318.77431,121.57356L318.77431,95.62312c0,-1.9758 -0.53009,-3.60222 -1.59028,-4.87926c-1.06019,-1.27704 -2.55408,-1.91556 -4.48169,-1.91556c-1.92761,0 -3.93955,0.89152 -6.03583,2.67456c-2.09628,1.78304 -3.14441,3.63836 -3.14441,5.56597L303.5221,121.57356L297.73928,121.57356L297.73928,84.92489L303.5221,84.92489L303.5221,90.12944c3.75884,-4.04798 7.22853,-6.07197 10.40909,-6.07197c2.02399,0 3.84317,0.63852 5.45754,1.91556c1.61437,1.27704 2.83118,2.87937 3.65041,4.80698c4.14436,-4.72264 8.04777,-7.08396 11.71023,-7.08396c3.03598,0 5.63826,1.20476 7.80682,3.61427c2.16856,2.40951 3.25284,5.18045 3.25284,8.31281L345.80903,121.57356L339.95392,121.57356z"></path>
        <path d="M366.26578,122.58556c-5.05997,0 -9.15614,-1.42161 -12.28851,-4.26484L356.94097,113.76674c2.55408,2.4577 5.85511,3.71065 9.90309,3.75884c1.73485,0 3.34922,-0.65057 4.84312,-1.9517c1.4939,-1.30114 2.24085,-2.77094 2.24085,-4.40941c0,-2.69865 -1.9517,-4.57807 -5.85511,-5.63826c-2.98779,-0.77104 -5.95149,-1.71075 -8.8911,-2.81913c-2.84322,-1.4939 -4.28893,-4.02388 -4.33712,-7.58996c0,-3.56608 1.14452,-6.39725 3.43355,-8.49353c2.28904,-2.09628 5.21659,-3.12032 8.78267,-3.07213c3.37332,0.04819 6.93939,1.18066 10.69823,3.39741L375.80745,91.57514c-3.4697,-2.21675 -6.45749,-3.32513 -8.96338,-3.32513c-4.28893,0 -6.4334,1.80713 -6.4334,5.4214c0,1.9758 0.9879,3.30103 2.9637,3.97569c1.34933,0.43371 4.9154,1.59028 10.69823,3.4697c3.9516,1.83123 5.9274,4.72264 5.9274,8.67424c0,3.99979 -1.27704,7.13215 -3.83112,9.3971c-2.55408,2.26494 -5.85511,3.39741 -9.90309,3.39741z"></path>
      </g>
      <g>
        <polygon points="112.54,131.02 112.54,128.39 380,128.39 380,133.65 112.54,133.65 112.54,131.02"></polygon>
      </g>
    </g>
  </g>
  <g></g>
</g>
</svg>